<?xml version="1.0" encoding="utf-8"?>
<!-- Generator: Adobe Illustrator 25.3.1, SVG Export Plug-In . SVG Version: 6.00 Build 0)  -->
<svg version="1.1" id="Capa_1" xmlns="http://www.w3.org/2000/svg" xmlns:xlink="http://www.w3.org/1999/xlink" x="0px" y="0px"
	 viewBox="0 0 155.7 187.1" style="enable-background:new 0 0 155.7 187.1;" xml:space="preserve">
<style type="text/css">
	.st0{opacity:0.26;}
	.st1{fill:#050505;}
</style>
<g class="st0">
	<path class="st1" d="M116.5,127.9c-25.9,0-51.7,0-77.5,0c0-22.9,0-45.7,0-68.6c8.6,0,17.2,0,26,0c0,8.3,0,16.5,0,25
		c1.2-0.6,2.1-1,3.1-1.5c3-1.5,6-3.1,9-4.5c0.5-0.2,1.3-0.2,1.7,0c3.6,1.7,7.1,3.6,10.7,5.4c0.4,0.2,0.8,0.3,1.3,0.6
		c0-8.4,0-16.7,0-25c8.7,0,17.2,0,25.8,0C116.5,82.1,116.5,104.9,116.5,127.9z"/>
	<path class="st1" d="M92.3,16.8c-1.3-2.7-2.6-5.1-3.8-7.6c-1.9-4.3,0.3-8.4,4.8-9.1c2.5-0.4,5,1.1,6.5,3.8
		c2.4,4.6,4.8,9.2,7.2,13.8c1,2,2.1,4,3.1,6c2,4.2,1.3,6.8-2.8,9.1c-5.4,3-10.8,5.8-16.3,8.7c-1.3,0.7-2.6,1.3-3.8,2
		c-3.4,1.7-6.7,0.6-8.5-2.6c-1.6-2.9-0.6-6.6,2.5-8.4c1.6-1,3.3-1.8,4.9-2.7c0.3-0.2,0.7-0.4,0.9-0.9c-2.2-0.2-4.3-0.5-6.5-0.5
		c-19.1-0.4-35.6,6-49.2,19.5C20.8,58.2,14.6,70.9,13,85.6c-1.9,16.7,1.8,32.1,11.7,45.8c1.5,2,2.4,4.2,1.3,6.7
		c-2.1,4.8-7.6,5.5-10.8,1.4c-1.6-2-2.9-4.2-4.2-6.4c-5.6-9.4-9.5-19.5-10.5-30.4c-2.2-23.6,4.1-44.6,20.3-62.2
		C33.2,26.9,48.9,19,67.2,16.3c7.8-1.1,15.7-0.9,23.5,0.3C91.1,16.7,91.6,16.7,92.3,16.8z"/>
	<path class="st1" d="M63.4,170.3c1,1.9,1.8,3.5,2.7,5.2c0.9,1.7,1.9,3.3,1.9,5.4c0,2.6-1.2,4.3-3.4,5.5c-2.1,1.1-4.3,1.1-6.2-0.4
		c-1-0.7-1.8-1.7-2.4-2.8c-3.3-6.2-6.6-12.5-9.8-18.8c-0.5-1-0.9-2.1-1.2-3.2c-0.5-2.1-0.1-3.9,1.5-5.3c0.9-0.8,1.9-1.5,2.9-2.1
		c6.3-3.4,12.6-6.7,19-9.9c3-1.5,6.1-1,8,1.2c2.7,3.1,1.9,7.6-1.9,9.8c-1.2,0.7-2.4,1.3-3.6,1.9c-0.3,0.2-0.7,0.4-1,0.6
		c0,0.1,0,0.2,0,0.4c2.7,0.2,5.3,0.6,8,0.7c17.3,0.7,31.9-5.7,44.5-17.1c11.8-10.8,18.7-24.2,20.6-40.1c1.7-14.1-1.2-27.5-8-39.9
		c-1.1-2-2.5-3.9-3.8-5.8c-1.2-1.8-1.9-3.7-1.5-5.9c0.8-4.3,6-6.4,9.5-3.6c1.7,1.4,3.1,3.3,4.3,5.2c7,10.6,11,22.4,12,35.1
		c1.4,18.1-2.4,35-12.5,50.3c-9.6,14.5-22.8,24.5-39.1,30.4c-9.2,3.4-18.8,4.6-28.6,4.3c-3.2-0.1-6.3-0.5-9.4-0.8
		C65.1,170.4,64.4,170.4,63.4,170.3z"/>
</g>
</svg>
