<?xml version="1.0" encoding="utf-8"?>
<!-- Generator: Adobe Illustrator 25.3.1, SVG Export Plug-In . SVG Version: 6.00 Build 0)  -->
<svg version="1.1" id="Capa_1" xmlns="http://www.w3.org/2000/svg" xmlns:xlink="http://www.w3.org/1999/xlink" x="0px" y="0px"
	 viewBox="0 0 155.72 187.08" style="enable-background:new 0 0 155.72 187.08;" xml:space="preserve">
<style type="text/css">
	.st0{fill:#1E294C;}
</style>
<g>
	<path class="st0" d="M116.54,127.88c-25.9,0-51.69,0-77.53,0c0-22.9,0-45.72,0-68.64c8.62,0,17.21,0,25.95,0
		c0,8.28,0,16.52,0,24.99c1.15-0.57,2.1-1.03,3.05-1.51c2.99-1.51,5.96-3.06,8.98-4.5c0.48-0.23,1.26-0.22,1.73,0.01
		c3.59,1.74,7.13,3.57,10.69,5.37c0.38,0.19,0.77,0.34,1.32,0.58c0-8.41,0-16.65,0-24.97c8.65,0,17.18,0,25.81,0
		C116.54,82.08,116.54,104.94,116.54,127.88z"/>
	<path class="st0" d="M92.31,16.78c-1.35-2.72-2.64-5.14-3.77-7.64c-1.93-4.27,0.28-8.38,4.81-9.08c2.48-0.38,4.98,1.07,6.46,3.84
		c2.44,4.58,4.83,9.18,7.23,13.77c1.03,1.98,2.08,3.96,3.05,5.97c2.03,4.21,1.26,6.83-2.83,9.08c-5.38,2.96-10.83,5.79-16.26,8.67
		c-1.27,0.67-2.55,1.32-3.84,1.95c-3.4,1.65-6.73,0.63-8.5-2.59c-1.61-2.94-0.57-6.56,2.49-8.4c1.61-0.96,3.3-1.79,4.94-2.68
		c0.34-0.18,0.66-0.39,0.95-0.87c-2.18-0.17-4.35-0.45-6.53-0.5c-19.13-0.41-35.64,5.98-49.2,19.49
		C20.83,58.23,14.63,70.92,13,85.64c-1.85,16.72,1.77,32.12,11.73,45.85c1.47,2.03,2.35,4.21,1.26,6.71
		c-2.07,4.76-7.58,5.51-10.84,1.39c-1.58-2-2.92-4.19-4.24-6.38c-5.63-9.39-9.46-19.48-10.49-30.41
		C-1.79,79.2,4.56,58.19,20.68,40.56c12.5-13.67,28.18-21.59,46.5-24.26c7.84-1.14,15.68-0.86,23.51,0.3
		C91.14,16.67,91.61,16.71,92.31,16.78z"/>
	<path class="st0" d="M63.39,170.31c0.97,1.87,1.85,3.51,2.68,5.17c0.86,1.7,1.86,3.34,1.87,5.36c0.02,2.58-1.24,4.33-3.41,5.47
		c-2.11,1.11-4.29,1.07-6.21-0.37c-0.96-0.72-1.83-1.71-2.4-2.76c-3.34-6.22-6.6-12.48-9.85-18.75c-0.53-1.02-0.93-2.12-1.22-3.23
		c-0.54-2.05-0.1-3.91,1.55-5.32c0.9-0.77,1.88-1.51,2.92-2.06c6.31-3.35,12.63-6.66,18.98-9.93c2.99-1.54,6.05-1.03,7.98,1.19
		c2.72,3.13,1.86,7.57-1.91,9.79c-1.17,0.69-2.39,1.29-3.58,1.93c-0.34,0.18-0.66,0.39-0.99,0.59c0.01,0.12,0.01,0.23,0.02,0.35
		c2.66,0.25,5.32,0.61,8,0.72c17.28,0.7,31.92-5.68,44.49-17.09c11.83-10.75,18.68-24.25,20.6-40.12
		c1.71-14.14-1.17-27.47-7.97-39.94c-1.1-2.02-2.54-3.87-3.81-5.8c-1.17-1.79-1.89-3.72-1.48-5.89c0.81-4.34,6.02-6.44,9.5-3.63
		c1.72,1.39,3.08,3.33,4.33,5.21c7.04,10.63,10.96,22.37,11.97,35.06c1.44,18.13-2.44,35.02-12.47,50.27
		c-9.56,14.53-22.85,24.46-39.09,30.43c-9.21,3.39-18.81,4.6-28.59,4.27c-3.15-0.11-6.28-0.53-9.42-0.79
		C65.12,170.37,64.37,170.36,63.39,170.31z"/>
</g>
</svg>
