<?xml version="1.0" encoding="utf-8"?>
<!-- Generator: Adobe Illustrator 22.0.1, SVG Export Plug-In . SVG Version: 6.00 Build 0)  -->
<svg version="1.1" id="Capa_1" xmlns="http://www.w3.org/2000/svg" xmlns:xlink="http://www.w3.org/1999/xlink" x="0px" y="0px"
	 viewBox="0 0 120 120" style="enable-background:new 0 0 120 120;" xml:space="preserve">
<style type="text/css">
	.st0{fill:#002A66;}
	.st1{fill:url(#SVGID_1_);}
	.st2{fill:url(#SVGID_2_);}
</style>
<g>
	<circle class="st0" cx="60" cy="60" r="59"/>
	<g>
		<linearGradient id="SVGID_1_" gradientUnits="userSpaceOnUse" x1="45.3543" y1="23.5029" x2="104.1043" y2="109.2529">
			<stop  offset="0" style="stop-color:#2FCABF"/>
			<stop  offset="1" style="stop-color:#0068A5"/>
		</linearGradient>
		<path class="st1" d="M58.3,59.9c9.6,1.3,17.8-6.7,16.7-16.3c-0.8-6.5-6-11.9-12.5-12.8c-9.6-1.3-17.8,6.7-16.7,16.3
			C46.5,53.7,51.7,59,58.3,59.9z M58.9,36.5c6.1-0.9,11.3,4.4,10.2,10.5c-0.7,3.7-3.7,6.7-7.4,7.2c-6.1,0.9-11.3-4.4-10.2-10.5
			C52.2,40,55.2,37.1,58.9,36.5z"/>
		<linearGradient id="SVGID_2_" gradientUnits="userSpaceOnUse" x1="26.9711" y1="36.0978" x2="85.7211" y2="121.8478">
			<stop  offset="0" style="stop-color:#2FCABF"/>
			<stop  offset="1" style="stop-color:#0068A5"/>
		</linearGradient>
		<path class="st2" d="M58.3,62.7C46,63.4,35.8,74.7,35.7,87l0,1.6c0,0.4,0.3,0.7,0.7,0.7l46.8,0.5c0.4,0,0.7-0.3,0.7-0.7l0-2.1
			C84.2,73.1,72.5,61.8,58.3,62.7z M42.6,83.7c-0.5,0-0.8-0.4-0.7-0.9c1.8-8.4,9.3-14.6,18.2-14.5S76.3,74.9,78,83.3
			c0.1,0.5-0.3,0.9-0.7,0.9L42.6,83.7z"/>
	</g>
</g>
</svg>
