<?xml version="1.0" encoding="utf-8"?>
<!-- Generator: Adobe Illustrator 22.0.1, SVG Export Plug-In . SVG Version: 6.00 Build 0)  -->
<svg version="1.1" id="Capa_1" xmlns="http://www.w3.org/2000/svg" xmlns:xlink="http://www.w3.org/1999/xlink" x="0px" y="0px"
	 viewBox="0 0 120 120" style="enable-background:new 0 0 120 120;" xml:space="preserve">
<style type="text/css">
	.st0{fill:#002A66;}
	.st1{fill:url(#SVGID_1_);}
</style>
<g>
	<circle class="st0" cx="60" cy="60" r="59"/>
	<g>
		<linearGradient id="SVGID_1_" gradientUnits="userSpaceOnUse" x1="26.3854" y1="20.0789" x2="105.8854" y2="109.3289">
			<stop  offset="0" style="stop-color:#2FCABF"/>
			<stop  offset="1" style="stop-color:#0068A5"/>
		</linearGradient>
		<path class="st1" d="M86.5,23H75.6c-0.3,0-0.6,0.2-0.6,0.6l-2,24.1c0,0.4-0.5,0.7-0.9,0.5l-14.7-7.7c-0.4-0.2-0.9,0.1-0.9,0.5v5.8
			c0,0.5-0.5,0.8-0.9,0.5l-13-6.8c-0.4-0.2-0.9,0.1-0.9,0.5v5.8c0,0.5-0.5,0.8-0.9,0.5l-13-6.8c-0.4-0.2-0.9,0.1-0.9,0.5v44.5
			c0,0.3,0.3,0.6,0.6,0.6h61.8c0.3,0,0.6-0.3,0.6-0.6V58.6c0,0,0,0,0-0.1l-2.9-35C87.1,23.2,86.8,23,86.5,23z M79.2,26.9h3.7
			c0.3,0,0.6,0.2,0.6,0.6l2.2,26.8c0,0.5-0.5,0.8-0.9,0.6L77,50.7c-0.2-0.1-0.3-0.3-0.3-0.6l1.9-22.7C78.6,27.1,78.9,26.9,79.2,26.9
			z M31.5,66.3h28.4c0.3,0,0.6,0.3,0.6,0.6v5.5c0,0.3-0.3,0.6-0.6,0.6H31.5c-0.3,0-0.6-0.3-0.6-0.6v-5.5
			C30.9,66.5,31.2,66.3,31.5,66.3z M77.7,82.1h-4.9c-0.3,0-0.6-0.3-0.6-0.6V66.9c0-0.3,0.3-0.6,0.6-0.6h4.9c0.3,0,0.6,0.3,0.6,0.6
			v14.6C78.3,81.8,78,82.1,77.7,82.1z M85.5,82.1h-2.7c-0.3,0-0.6-0.3-0.6-0.6V63c0-0.3-0.3-0.6-0.6-0.6H68.9
			c-0.3,0-0.6,0.3-0.6,0.6v18.5c0,0.3-0.3,0.6-0.6,0.6H31.5c-0.3,0-0.6-0.3-0.6-0.6v-4c0-0.3,0.3-0.6,0.6-0.6h32.3
			c0.3,0,0.6-0.3,0.6-0.6V63c0-0.3-0.3-0.6-0.6-0.6H31.5c-0.3,0-0.6-0.3-0.6-0.6V47.4c0-0.5,0.5-0.8,0.9-0.5l13,6.8
			c0.4,0.2,0.9-0.1,0.9-0.5v-5.8c0-0.5,0.5-0.8,0.9-0.5l13,6.8c0.4,0.2,0.9-0.1,0.9-0.5v-5.8c0-0.5,0.5-0.8,0.9-0.5l24.4,12.9
			c0.2,0.1,0.3,0.3,0.3,0.5v21.2C86.1,81.8,85.8,82.1,85.5,82.1z"/>
	</g>
</g>
</svg>
