<?xml version="1.0" encoding="utf-8"?>
<!-- Generator: Adobe Illustrator 22.0.1, SVG Export Plug-In . SVG Version: 6.00 Build 0)  -->
<svg version="1.1" id="Capa_1" xmlns="http://www.w3.org/2000/svg" xmlns:xlink="http://www.w3.org/1999/xlink" x="0px" y="0px"
	 viewBox="0 0 120 120" style="enable-background:new 0 0 120 120;" xml:space="preserve">
<style type="text/css">
	.st0{fill:#002A66;}
	.st1{fill:url(#SVGID_1_);}
</style>
<g>
	<circle class="st0" cx="60" cy="60" r="59"/>
	<g>
		<linearGradient id="SVGID_1_" gradientUnits="userSpaceOnUse" x1="35.4814" y1="45.564" x2="82.5447" y2="85.754">
			<stop  offset="0" style="stop-color:#2FCABF"/>
			<stop  offset="1" style="stop-color:#0068A5"/>
		</linearGradient>
		<path class="st1" d="M96.4,54.4h-7.6l-7-12.1c-0.4-0.7-1.2-1.1-2-1.1H67.9v-2.9c0-1.3-1-2.3-2.3-2.3H20.8c-1.3,0-2.3,1-2.3,2.3V74
			c0,1.3,1,2.3,2.3,2.3h9.3c0.9,4,4.5,7,8.7,7c4.3,0,7.8-3,8.7-7h25.2c0.9,4,4.5,7,8.7,7c4.3,0,7.8-3,8.7-7h6.1c1.3,0,2.3-1,2.3-2.3
			V56.7C98.6,55.4,97.6,54.4,96.4,54.4z M85.9,74.3c0,2.4-2,4.4-4.4,4.4c-2.4,0-4.4-2-4.4-4.4c0-2.4,2-4.4,4.4-4.4
			C83.9,69.9,85.9,71.9,85.9,74.3z M43.3,74.3c0,2.4-2,4.4-4.4,4.4c-2.4,0-4.4-2-4.4-4.4c0-2.4,2-4.4,4.4-4.4
			C41.3,69.9,43.3,71.9,43.3,74.3z M23.1,40.5h40.3v31.2H47.4c-1.1-3.7-4.5-6.4-8.6-6.4c-4,0-7.4,2.7-8.6,6.4h-7.2V40.5z M94.1,71.7
			h-4c-1.1-3.7-4.5-6.4-8.6-6.4c-4,0-7.4,2.7-8.6,6.4h-5.1V58.9h26.2L94.1,71.7L94.1,71.7z M78.5,45.7l5.1,8.7H67.9v-8.7H78.5z"/>
	</g>
</g>
</svg>
