<?xml version="1.0" encoding="utf-8"?>
<!-- Generator: Adobe Illustrator 16.0.0, SVG Export Plug-In . SVG Version: 6.00 Build 0)  -->
<!DOCTYPE svg PUBLIC "-//W3C//DTD SVG 1.1//EN" "http://www.w3.org/Graphics/SVG/1.1/DTD/svg11.dtd">
<svg version="1.1" id="Capa_1" xmlns="http://www.w3.org/2000/svg" xmlns:xlink="http://www.w3.org/1999/xlink" x="0px" y="0px"
	 width="100px" height="100px" viewBox="0 0 100 100" enable-background="new 0 0 100 100" xml:space="preserve">
<g opacity="0.26">
	<path fill="#050505" d="M-300.8,41c-0.7,0-1.5,0.3-2,0.8l-10.2,10.2l-4.1-4.1c-1.1-1.1-2.9-1.1-4,0c-1.1,1.1-1.1,2.9,0,4l6.1,6.1
		c0.6,0.6,1.3,0.8,2,0.8s1.5-0.3,2-0.8l1-1l11.2-11.2c1.1-1.1,1.1-2.9,0-4C-299.4,41.3-300.1,41-300.8,41z"/>
	<path fill="#050505" d="M-260,44.2c-0.1-1.2-0.8-2.3-1.7-3.1l-6.8-5.1l2.5-8.2c0.4-1.2,0.2-2.4-0.4-3.5c-0.6-1.1-1.6-1.8-2.8-2.1
		l-8.3-1.9l-1.1-8.5c-0.2-1.2-0.8-2.3-1.8-3c-0.8-0.6-1.7-0.8-2.6-0.8c-0.3,0-0.6,0-0.8,0.1l-8.4,1.6l-4.4-7.3c-0.6-1-1.7-1.8-2.9-2
		c-0.3-0.1-0.6-0.1-0.9-0.1c-0.9,0-1.8,0.3-2.5,0.8l-7,4.9l-7-4.9c-0.7-0.5-1.6-0.8-2.5-0.8c-0.3,0-0.6,0-0.9,0.1
		c-1.2,0.3-2.2,1-2.9,2l-4.4,7.3l-8.4-1.6c-0.3-0.1-0.6-0.1-0.8-0.1c-0.9,0-1.8,0.3-2.6,0.8c-1,0.7-1.6,1.8-1.8,3l-1.1,8.5l-8.3,1.9
		c-1.2,0.3-2.2,1-2.8,2.1c-0.6,1.1-0.8,2.3-0.4,3.5l2.5,8.2l-6.8,5.1c-1,0.7-1.6,1.9-1.7,3.1c-0.1,1.2,0.3,2.4,1.1,3.4l5.6,6.4
		l-4.1,7.5c-0.6,1.1-0.7,2.3-0.3,3.5s1.2,2.1,2.3,2.6l7.7,3.6l-0.7,8.5c-0.1,1.2,0.3,2.4,1.1,3.3c0.8,0.9,2,1.4,3.2,1.5l8.5,0.2
		l2.8,8c0.4,1.2,1.3,2.1,2.4,2.6c0.6,0.3,1.2,0.4,1.8,0.4c0.6,0,1.2-0.1,1.7-0.3l7.9-3.3l5.8,6.2c0.8,0.9,2,1.4,3.2,1.4
		c1.2,0,2.4-0.5,3.2-1.4l5.8-6.2l7.9,3.3c0.5,0.2,1.1,0.3,1.7,0.3c0.6,0,1.2-0.1,1.8-0.4c1.1-0.5,2-1.4,2.4-2.6l2.8-8l8.5-0.2
		c1.2,0,2.4-0.6,3.2-1.5c0.8-0.9,1.2-2.1,1.1-3.3l-0.7-8.5l7.7-3.6c1.1-0.5,2-1.5,2.3-2.6c0.4-1.2,0.3-2.4-0.3-3.5l-4.1-7.5l5.6-6.4
		C-260.3,46.7-259.9,45.5-260,44.2z M-310,78.9c-15.9,0-28.9-12.9-28.9-28.9s13-28.9,28.9-28.9c15.9,0,28.9,13,28.9,28.9
		C-281.1,65.9-294.1,78.9-310,78.9z"/>
</g>
<g>
	<path fill="#02C8AF" d="M-300.8,153c-0.7,0-1.5,0.3-2,0.8l-10.2,10.2l-4.1-4.1c-1.1-1.1-2.9-1.1-4,0c-1.1,1.1-1.1,2.9,0,4l6.1,6.1
		c0.6,0.6,1.3,0.8,2,0.8s1.5-0.3,2-0.8l1-1l11.2-11.2c1.1-1.1,1.1-2.9,0-4C-299.4,153.3-300.1,153-300.8,153z"/>
	<path fill="#02C8AF" d="M-260,156.2c-0.1-1.2-0.8-2.3-1.7-3.1l-6.8-5.1l2.5-8.2c0.4-1.2,0.2-2.4-0.4-3.5c-0.6-1.1-1.6-1.8-2.8-2.1
		l-8.3-1.9l-1.1-8.5c-0.2-1.2-0.8-2.3-1.8-3c-0.8-0.6-1.7-0.8-2.6-0.8c-0.3,0-0.6,0-0.8,0.1l-8.4,1.6l-4.4-7.3c-0.6-1-1.7-1.8-2.9-2
		c-0.3-0.1-0.6-0.1-0.9-0.1c-0.9,0-1.8,0.3-2.5,0.8l-7,4.9l-7-4.9c-0.7-0.5-1.6-0.8-2.5-0.8c-0.3,0-0.6,0-0.9,0.1
		c-1.2,0.3-2.2,1-2.9,2l-4.4,7.3l-8.4-1.6c-0.3-0.1-0.6-0.1-0.8-0.1c-0.9,0-1.8,0.3-2.6,0.8c-1,0.7-1.6,1.8-1.8,3l-1.1,8.5l-8.3,1.9
		c-1.2,0.3-2.2,1-2.8,2.1c-0.6,1.1-0.8,2.3-0.4,3.5l2.5,8.2l-6.8,5.1c-1,0.7-1.6,1.9-1.7,3.1c-0.1,1.2,0.3,2.4,1.1,3.4l5.6,6.4
		l-4.1,7.5c-0.6,1.1-0.7,2.3-0.3,3.5s1.2,2.1,2.3,2.6l7.7,3.6l-0.7,8.5c-0.1,1.2,0.3,2.4,1.1,3.3c0.8,0.9,2,1.4,3.2,1.5l8.5,0.2
		l2.8,8c0.4,1.2,1.3,2.1,2.4,2.6c0.6,0.3,1.2,0.4,1.8,0.4c0.6,0,1.2-0.1,1.7-0.3l7.9-3.3l5.8,6.2c0.8,0.9,2,1.4,3.2,1.4
		c1.2,0,2.4-0.5,3.2-1.4l5.8-6.2l7.9,3.3c0.5,0.2,1.1,0.3,1.7,0.3c0.6,0,1.2-0.1,1.8-0.4c1.1-0.5,2-1.4,2.4-2.6l2.8-8l8.5-0.2
		c1.2,0,2.4-0.6,3.2-1.5c0.8-0.9,1.2-2.1,1.1-3.3l-0.7-8.5l7.7-3.6c1.1-0.5,2-1.5,2.3-2.6c0.4-1.2,0.3-2.4-0.3-3.5l-4.1-7.5l5.6-6.4
		C-260.3,158.7-259.9,157.5-260,156.2z M-310,190.9c-15.9,0-28.9-12.9-28.9-28.9s13-28.9,28.9-28.9c15.9,0,28.9,13,28.9,28.9
		C-281.1,177.9-294.1,190.9-310,190.9z"/>
</g>
<g opacity="0.26">
	<path fill="#050505" d="M-228.2,26.1c0.7,0.7,1.5,1,2.5,1c0.9,0,1.8-0.4,2.5-1l9.4-9.4c1.4-1.4,1.4-3.6,0-4.9l-9.4-9.4
		c-0.7-0.7-1.5-1-2.5-1c-0.9,0-1.8,0.4-2.5,1l-9.4,9.4c-0.7,0.7-1,1.5-1,2.5c0,0.9,0.4,1.8,1,2.5L-228.2,26.1z M-225.8,9.7
		c2.5,0,4.5,2,4.5,4.5c0,2.5-2,4.5-4.5,4.5c-2.5,0-4.5-2-4.5-4.5C-230.3,11.7-228.3,9.7-225.8,9.7z"/>
	<path fill="#050505" d="M-155.5,69c-0.9,0-1.7,0.1-2.6,0.2l-40.7-40.7c0.8-2.3,1.3-4.7,1.3-7.3C-197.5,9.5-207,0-218.7,0
		c-0.6,0-1.2,0-1.8,0.1l9.1,9.1c2.8,2.8,2.8,7.3,0,10l-9.4,9.4c-1.4,1.4-3.2,2.1-5,2.1c-1.8,0-3.6-0.7-5-2.1l-9.2-9.2
		c0,0.6-0.1,1.2-0.1,1.8c0,11.8,9.5,21.3,21.3,21.3c3.2,0,6.2-0.7,8.9-1.9l39.5,39.5c-0.4,1.4-0.6,2.9-0.6,4.4
		c0,8.6,6.9,15.5,15.5,15.5c8.6,0,15.5-6.9,15.5-15.5C-140,76-146.9,69-155.5,69z M-155.5,92.2c-4.2,0-7.6-3.4-7.6-7.6
		c0-4.2,3.4-7.6,7.6-7.6s7.6,3.4,7.6,7.6C-147.8,88.7-151.3,92.2-155.5,92.2z"/>
</g>
<g>
	<path fill="#02C8AF" d="M-226.8,137.8c0.7,0.7,1.5,1,2.5,1c0.9,0,1.8-0.4,2.5-1l9.4-9.4c1.4-1.4,1.4-3.6,0-4.9l-9.4-9.4
		c-0.7-0.7-1.5-1-2.5-1c-0.9,0-1.8,0.4-2.5,1l-9.4,9.4c-0.7,0.7-1,1.5-1,2.5c0,0.9,0.4,1.8,1,2.5L-226.8,137.8z M-224.4,121.5
		c2.5,0,4.5,2,4.5,4.5c0,2.5-2,4.5-4.5,4.5c-2.5,0-4.5-2-4.5-4.5C-228.9,123.5-226.9,121.5-224.4,121.5z"/>
	<path fill="#02C8AF" d="M-154.1,180.8c-0.9,0-1.7,0.1-2.6,0.2l-40.7-40.7c0.8-2.3,1.3-4.7,1.3-7.3c0-11.8-9.5-21.3-21.3-21.3
		c-0.6,0-1.2,0-1.8,0.1l9.1,9.1c2.8,2.8,2.8,7.3,0,10l-9.4,9.4c-1.4,1.4-3.2,2.1-5,2.1c-1.8,0-3.6-0.7-5-2.1l-9.2-9.2
		c0,0.6-0.1,1.2-0.1,1.8c0,11.8,9.5,21.3,21.3,21.3c3.2,0,6.2-0.7,8.9-1.9l39.5,39.5c-0.4,1.4-0.6,2.9-0.6,4.4
		c0,8.6,6.9,15.5,15.5,15.5c8.6,0,15.5-6.9,15.5-15.5C-138.6,187.7-145.5,180.8-154.1,180.8z M-154.1,203.9c-4.2,0-7.6-3.4-7.6-7.6
		c0-4.2,3.4-7.6,7.6-7.6s7.6,3.4,7.6,7.6C-146.4,200.5-149.9,203.9-154.1,203.9z"/>
</g>
<g opacity="0.26">
	<path fill="#050505" d="M63,24c0,4.5,3.6,8.1,8.1,8.1h9.4h6.7L63.6,0.7c-0.1-0.1-0.1-0.1-0.2-0.2c0,0,0,0-0.1-0.1
		c0,0-0.1-0.1-0.2-0.1c0,0,0,0-0.1,0c0,0-0.1-0.1-0.1-0.1l0,8.6V24z"/>
	<path fill="#050505" d="M83.4,35.8H71.3c-0.1,0-0.1,0-0.2,0H26.7c-1,0-1.9-0.8-1.9-1.9c0-1,0.8-1.9,1.9-1.9h35.7
		c-2-2.1-3.2-5-3.2-8.1v-4.2l-32.5,0c-1,0-1.9-0.8-1.9-1.9c0-1,0.8-1.9,1.9-1.9h32.5V3.8V0H26.1l-3.9,0.1
		c-5.8,0.7-10.4,5.7-10.4,11.8v76.3c0,3.2,1.2,6.2,3.5,8.4c2.2,2.2,5.2,3.5,8.4,3.5h52.6c5.9,0,10.8-4.3,11.7-10l0.1-3.8V35.8
		L83.4,35.8z M75.5,84H25.8c-1,0-1.9-0.8-1.9-1.9c0-1,0.8-1.9,1.9-1.9h49.7c1,0,1.9,0.8,1.9,1.9C77.4,83.1,76.5,84,75.5,84z
		 M75.5,67.9H25.8c-1,0-1.9-0.8-1.9-1.9c0-1,0.8-1.9,1.9-1.9h49.7c1,0,1.9,0.9,1.9,1.9C77.4,67.1,76.5,67.9,75.5,67.9z M75.5,51.9
		H25.8c-1,0-1.9-0.8-1.9-1.9c0-1,0.8-1.9,1.9-1.9h49.7c1,0,1.9,0.8,1.9,1.9C77.4,51,76.5,51.9,75.5,51.9z"/>
</g>
<g>
	<path fill="#02C8AF" d="M63,136c0,4.5,3.6,8.1,8.1,8.1h9.4h6.7l-23.6-31.3c-0.1-0.1-0.1-0.1-0.2-0.2c0,0,0,0-0.1-0.1
		c0,0-0.1-0.1-0.2-0.1c0,0,0,0-0.1,0c0,0-0.1-0.1-0.1-0.1l0,8.6V136z"/>
	<path fill="#02C8AF" d="M83.4,147.8H71.3c-0.1,0-0.1,0-0.2,0H26.7c-1,0-1.9-0.8-1.9-1.9c0-1,0.8-1.9,1.9-1.9h35.7
		c-2-2.1-3.2-5-3.2-8.1v-4.2l-32.5,0c-1,0-1.9-0.8-1.9-1.9c0-1,0.8-1.9,1.9-1.9h32.5v-12.3V112H26.1l-3.9,0.1
		c-5.8,0.7-10.4,5.7-10.4,11.8v76.3c0,3.2,1.2,6.2,3.5,8.4c2.2,2.2,5.2,3.5,8.4,3.5h52.6c5.9,0,10.8-4.3,11.7-10l0.1-3.8v-50.3
		L83.4,147.8z M75.5,196H25.8c-1,0-1.9-0.8-1.9-1.9c0-1,0.8-1.9,1.9-1.9h49.7c1,0,1.9,0.8,1.9,1.9C77.4,195.1,76.5,196,75.5,196z
		 M75.5,179.9H25.8c-1,0-1.9-0.8-1.9-1.9c0-1,0.8-1.9,1.9-1.9h49.7c1,0,1.9,0.9,1.9,1.9C77.4,179.1,76.5,179.9,75.5,179.9z
		 M75.5,163.9H25.8c-1,0-1.9-0.8-1.9-1.9c0-1,0.8-1.9,1.9-1.9h49.7c1,0,1.9,0.8,1.9,1.9C77.4,163,76.5,163.9,75.5,163.9z"/>
</g>
<g opacity="0.26">
	<path fill="#050505" d="M-66.1,96.4h-7.9c-1,0-1.8,0.8-1.8,1.8c0,1,0.8,1.8,1.8,1.8h7.9c1,0,1.8-0.8,1.8-1.8
		C-64.3,97.2-65.1,96.4-66.1,96.4z"/>
	<path fill="#050505" d="M-58.5,82.6h-23c-1,0-1.8,0.8-1.8,1.8v4.4c0,0.1,0,0.3,0,0.4c0.3,3,2.8,5.2,5.8,5.2h14.9
		c3,0,5.5-2.3,5.8-5.2c0-0.1,0-0.3,0-0.4v-4.4C-56.7,83.4-57.5,82.6-58.5,82.6z"/>
	<g>
		<polygon fill="#050505" points="-59.1,48.5 -61.6,48.5 -64.2,46.4 -67.2,49.8 -70,46.5 -72.9,49.8 -75.9,46.4 -78.5,48.5 
			-80.9,48.5 -76.5,80.1 -63.9,80.1 		"/>
		<path fill="#050505" d="M-70,0c-20.1,0-36.5,16.4-36.5,36.5c0,10.3,4.4,20.2,12.1,27.1c0,0,0.1,0.1,0.1,0.1l0.5,0.4
			C-84,72.6-83.4,78-83.4,78.4c0,0.5,0.2,0.9,0.5,1.3c0.3,0.4,0.8,0.5,1.3,0.5h2.6l-4.4-32c-0.1-0.5,0.1-1.1,0.5-1.5
			c0.3-0.4,0.8-0.6,1.3-0.6h2.2l2.5-2c0.8-0.6,1.8-0.5,2.5,0.2l1.5,1.8l1.5-1.7c0.3-0.4,0.8-0.6,1.3-0.6c0.6,0,1.1,0.2,1.4,0.6
			l1.4,1.7l1.6-1.7c0.6-0.7,1.8-0.8,2.5-0.2l2.4,2h2.3c0.5,0,1,0.2,1.4,0.6c0.3,0.4,0.5,0.9,0.4,1.5l-4.8,32h3c0.5,0,1-0.2,1.3-0.5
			c0.3-0.3,0.5-0.8,0.5-1.3c0-0.4,0.7-5.7,10.2-14c0.2-0.2,0.4-0.4,0.6-0.5l0.1-0.1c0,0,0.1-0.1,0.1-0.1
			c7.7-6.9,12.1-16.8,12.1-27.2C-33.5,16.4-49.9,0-70,0z"/>
	</g>
</g>
<g>
	<path fill="#02C8AF" d="M-66.1,208.4h-7.9c-1,0-1.8,0.8-1.8,1.8c0,1,0.8,1.8,1.8,1.8h7.9c1,0,1.8-0.8,1.8-1.8
		C-64.3,209.2-65.1,208.4-66.1,208.4z"/>
	<path fill="#02C8AF" d="M-58.5,194.6h-23c-1,0-1.8,0.8-1.8,1.8v4.4c0,0.1,0,0.3,0,0.4c0.3,3,2.8,5.2,5.8,5.2h14.9
		c3,0,5.5-2.3,5.8-5.2c0-0.1,0-0.3,0-0.4v-4.4C-56.7,195.4-57.5,194.6-58.5,194.6z"/>
	<g>
		<polygon fill="#02C8AF" points="-59.1,160.5 -61.6,160.5 -64.2,158.4 -67.2,161.8 -70,158.5 -72.9,161.8 -75.9,158.4 -78.5,160.5 
			-80.9,160.5 -76.5,192.1 -63.9,192.1 		"/>
		<path fill="#02C8AF" d="M-70,112c-20.1,0-36.5,16.4-36.5,36.5c0,10.3,4.4,20.2,12.1,27.1c0,0,0.1,0.1,0.1,0.1l0.5,0.4
			c9.8,8.4,10.4,13.8,10.4,14.2c0,0.5,0.2,0.9,0.5,1.3c0.3,0.4,0.8,0.5,1.3,0.5h2.6l-4.4-32c-0.1-0.5,0.1-1.1,0.5-1.5
			c0.3-0.4,0.8-0.6,1.3-0.6h2.2l2.5-2c0.8-0.6,1.8-0.5,2.5,0.2l1.5,1.8l1.5-1.7c0.3-0.4,0.8-0.6,1.3-0.6c0.6,0,1.1,0.2,1.4,0.6
			l1.4,1.7l1.6-1.7c0.6-0.7,1.8-0.8,2.5-0.2l2.4,2h2.3c0.5,0,1,0.2,1.4,0.6c0.3,0.4,0.5,0.9,0.4,1.5l-4.8,32h3c0.5,0,1-0.2,1.3-0.5
			c0.3-0.3,0.5-0.8,0.5-1.3c0-0.4,0.7-5.7,10.2-14c0.2-0.2,0.4-0.4,0.6-0.5l0.1-0.1c0,0,0.1-0.1,0.1-0.1
			c7.7-6.9,12.1-16.8,12.1-27.2C-33.5,128.4-49.9,112-70,112z"/>
	</g>
</g>
</svg>
