<?xml version="1.0" encoding="utf-8"?>
<!-- Generator: Adobe Illustrator 16.0.0, SVG Export Plug-In . SVG Version: 6.00 Build 0)  -->
<!DOCTYPE svg PUBLIC "-//W3C//DTD SVG 1.1//EN" "http://www.w3.org/Graphics/SVG/1.1/DTD/svg11.dtd">
<svg version="1.1" id="Capa_1" xmlns="http://www.w3.org/2000/svg" xmlns:xlink="http://www.w3.org/1999/xlink" x="0px" y="0px"
	 width="100px" height="100px" viewBox="0 0 100 100" enable-background="new 0 0 100 100" xml:space="preserve">
<g>
	<path fill="#02C8AF" d="M63.051,23.95c0,4.5,3.6,8.1,8.1,8.1h9.4h6.699l-23.6-31.3c-0.1-0.1-0.1-0.1-0.199-0.2c0,0,0,0-0.102-0.1
		c0,0-0.1-0.1-0.199-0.1c0,0,0,0-0.1,0l-0.1-0.101v8.601v15.1H63.051z"/>
	<path fill="#02C8AF" d="M83.451,35.75H71.35c-0.1,0-0.1,0-0.199,0h-44.4c-1,0-1.9-0.8-1.9-1.899c0-1,0.801-1.9,1.9-1.9h35.701
		c-2-2.1-3.201-5-3.201-8.1v-4.2h-32.5c-1,0-1.9-0.8-1.9-1.9c0-1,0.801-1.899,1.9-1.899h32.5V3.55v-3.6h-33.1l-3.9,0.1
		c-5.8,0.7-10.4,5.7-10.4,11.801v76.3c0,3.2,1.2,6.2,3.5,8.399c2.2,2.2,5.2,3.5,8.4,3.5h52.6c5.9,0,10.801-4.3,11.701-10l0.1-3.8
		v-50.3L83.451,35.75z M75.551,83.95H25.85c-1,0-1.899-0.8-1.899-1.9c0-1,0.8-1.899,1.899-1.899h49.701c1,0,1.9,0.8,1.9,1.899
		C77.451,83.05,76.551,83.95,75.551,83.95z M75.551,67.851H25.85c-1,0-1.899-0.801-1.899-1.9c0-1,0.8-1.9,1.899-1.9h49.701
		c1,0,1.9,0.9,1.9,1.9C77.451,67.05,76.551,67.851,75.551,67.851z M75.551,51.851H25.85c-1,0-1.899-0.801-1.899-1.9
		c0-1,0.8-1.9,1.899-1.9h49.701c1,0,1.9,0.801,1.9,1.9C77.451,50.95,76.551,51.851,75.551,51.851z"/>
</g>
</svg>
