<?xml version="1.0" encoding="utf-8"?>
<!-- Generator: Adobe Illustrator 16.0.0, SVG Export Plug-In . SVG Version: 6.00 Build 0)  -->
<!DOCTYPE svg PUBLIC "-//W3C//DTD SVG 1.1//EN" "http://www.w3.org/Graphics/SVG/1.1/DTD/svg11.dtd">
<svg version="1.1" id="Capa_1" xmlns="http://www.w3.org/2000/svg" xmlns:xlink="http://www.w3.org/1999/xlink" x="0px" y="0px"
	 width="100px" height="100px" viewBox="0 0 100 100" enable-background="new 0 0 100 100" xml:space="preserve">
<g opacity="0.26">
	<path fill="#050505" d="M59.2,41c-0.7,0-1.5,0.3-2,0.8L46.9,52.1L42.9,48c-1.1-1.1-2.9-1.1-4,0c-1.1,1.1-1.1,2.9,0,4l6.1,6.1
		c0.6,0.6,1.3,0.8,2,0.8s1.5-0.3,2-0.8l1-1l11.2-11.2c1.1-1.1,1.1-2.9,0-4C60.6,41.3,59.9,41,59.2,41z"/>
	<path fill="#050505" d="M100,44.2c-0.1-1.2-0.8-2.3-1.7-3.1L91.5,36l2.5-8.2c0.4-1.2,0.2-2.4-0.4-3.5c-0.6-1.1-1.6-1.8-2.8-2.1
		l-8.3-1.9l-1.1-8.5c-0.2-1.2-0.8-2.3-1.8-3C78.8,8.3,77.9,8,76.9,8c-0.3,0-0.6,0-0.8,0.1l-8.4,1.6l-4.4-7.3c-0.6-1-1.7-1.8-2.9-2
		c-0.3-0.1-0.6-0.1-0.9-0.1c-0.9,0-1.8,0.3-2.5,0.8l-7,4.9L43,1c-0.7-0.5-1.6-0.8-2.5-0.8c-0.3,0-0.6,0-0.9,0.1
		c-1.2,0.3-2.2,1-2.9,2l-4.4,7.3l-8.4-1.6C23.6,8,23.4,8,23.1,8c-0.9,0-1.8,0.3-2.6,0.8c-1,0.7-1.6,1.8-1.8,3l-1.1,8.5l-8.3,1.9
		c-1.2,0.3-2.2,1-2.8,2.1c-0.6,1.1-0.8,2.3-0.4,3.5L8.5,36l-6.8,5.1c-1,0.7-1.6,1.9-1.7,3.1c-0.1,1.2,0.3,2.4,1.1,3.4l5.6,6.4
		l-4.1,7.5C2,62.6,1.8,63.9,2.2,65s1.2,2.1,2.3,2.6l7.7,3.6l-0.7,8.5c-0.1,1.2,0.3,2.4,1.1,3.3c0.8,0.9,2,1.4,3.2,1.5l8.5,0.2l2.8,8
		c0.4,1.2,1.3,2.1,2.4,2.6c0.6,0.3,1.2,0.4,1.8,0.4c0.6,0,1.2-0.1,1.7-0.3l7.9-3.3l5.8,6.2c0.8,0.9,2,1.4,3.2,1.4
		c1.2,0,2.4-0.5,3.2-1.4l5.8-6.2l7.9,3.3c0.5,0.2,1.1,0.3,1.7,0.3c0.6,0,1.2-0.1,1.8-0.4c1.1-0.5,2-1.4,2.4-2.6l2.8-8l8.5-0.2
		c1.2,0,2.4-0.6,3.2-1.5c0.8-0.9,1.2-2.1,1.1-3.3l-0.7-8.5l7.7-3.6c1.1-0.5,2-1.5,2.3-2.6c0.4-1.2,0.3-2.4-0.3-3.5l-4.1-7.5l5.6-6.4
		C99.7,46.7,100.1,45.5,100,44.2z M50,78.9c-15.9,0-28.9-12.9-28.9-28.9s13-28.9,28.9-28.9c15.9,0,28.9,13,28.9,28.9
		C78.9,65.9,65.9,78.9,50,78.9z"/>
</g>
<g>
	<path fill="#02C8AF" d="M59.2,153c-0.7,0-1.5,0.3-2,0.8l-10.2,10.2l-4.1-4.1c-1.1-1.1-2.9-1.1-4,0c-1.1,1.1-1.1,2.9,0,4l6.1,6.1
		c0.6,0.6,1.3,0.8,2,0.8s1.5-0.3,2-0.8l1-1l11.2-11.2c1.1-1.1,1.1-2.9,0-4C60.6,153.3,59.9,153,59.2,153z"/>
	<path fill="#02C8AF" d="M100,156.2c-0.1-1.2-0.8-2.3-1.7-3.1l-6.8-5.1l2.5-8.2c0.4-1.2,0.2-2.4-0.4-3.5c-0.6-1.1-1.6-1.8-2.8-2.1
		l-8.3-1.9l-1.1-8.5c-0.2-1.2-0.8-2.3-1.8-3c-0.8-0.6-1.7-0.8-2.6-0.8c-0.3,0-0.6,0-0.8,0.1l-8.4,1.6l-4.4-7.3c-0.6-1-1.7-1.8-2.9-2
		c-0.3-0.1-0.6-0.1-0.9-0.1c-0.9,0-1.8,0.3-2.5,0.8l-7,4.9l-7-4.9c-0.7-0.5-1.6-0.8-2.5-0.8c-0.3,0-0.6,0-0.9,0.1
		c-1.2,0.3-2.2,1-2.9,2l-4.4,7.3l-8.4-1.6c-0.3-0.1-0.6-0.1-0.8-0.1c-0.9,0-1.8,0.3-2.6,0.8c-1,0.7-1.6,1.8-1.8,3l-1.1,8.5l-8.3,1.9
		c-1.2,0.3-2.2,1-2.8,2.1c-0.6,1.1-0.8,2.3-0.4,3.5l2.5,8.2l-6.8,5.1c-1,0.7-1.6,1.9-1.7,3.1c-0.1,1.2,0.3,2.4,1.1,3.4l5.6,6.4
		l-4.1,7.5c-0.6,1.1-0.7,2.3-0.3,3.5s1.2,2.1,2.3,2.6l7.7,3.6l-0.7,8.5c-0.1,1.2,0.3,2.4,1.1,3.3c0.8,0.9,2,1.4,3.2,1.5l8.5,0.2
		l2.8,8c0.4,1.2,1.3,2.1,2.4,2.6c0.6,0.3,1.2,0.4,1.8,0.4c0.6,0,1.2-0.1,1.7-0.3l7.9-3.3l5.8,6.2c0.8,0.9,2,1.4,3.2,1.4
		c1.2,0,2.4-0.5,3.2-1.4l5.8-6.2l7.9,3.3c0.5,0.2,1.1,0.3,1.7,0.3c0.6,0,1.2-0.1,1.8-0.4c1.1-0.5,2-1.4,2.4-2.6l2.8-8l8.5-0.2
		c1.2,0,2.4-0.6,3.2-1.5c0.8-0.9,1.2-2.1,1.1-3.3l-0.7-8.5l7.7-3.6c1.1-0.5,2-1.5,2.3-2.6c0.4-1.2,0.3-2.4-0.3-3.5l-4.1-7.5l5.6-6.4
		C99.7,158.7,100.1,157.5,100,156.2z M50,190.9c-15.9,0-28.9-12.9-28.9-28.9s13-28.9,28.9-28.9c15.9,0,28.9,13,28.9,28.9
		C78.9,177.9,65.9,190.9,50,190.9z"/>
</g>
<g opacity="0.26">
	<path fill="#050505" d="M131.8,26.1c0.7,0.7,1.5,1,2.5,1c0.9,0,1.8-0.4,2.5-1l9.4-9.4c1.4-1.4,1.4-3.6,0-4.9l-9.4-9.4
		c-0.7-0.7-1.5-1-2.5-1c-0.9,0-1.8,0.4-2.5,1l-9.4,9.4c-0.7,0.7-1,1.5-1,2.5c0,0.9,0.4,1.8,1,2.5L131.8,26.1z M134.2,9.7
		c2.5,0,4.5,2,4.5,4.5c0,2.5-2,4.5-4.5,4.5c-2.5,0-4.5-2-4.5-4.5C129.7,11.7,131.7,9.7,134.2,9.7z"/>
	<path fill="#050505" d="M204.5,69c-0.9,0-1.7,0.1-2.6,0.2l-40.7-40.7c0.8-2.3,1.3-4.7,1.3-7.3C162.5,9.5,153,0,141.3,0
		c-0.6,0-1.2,0-1.8,0.1l9.1,9.1c2.8,2.8,2.8,7.3,0,10l-9.4,9.4c-1.4,1.4-3.2,2.1-5,2.1c-1.8,0-3.6-0.7-5-2.1l-9.2-9.2
		c0,0.6-0.1,1.2-0.1,1.8c0,11.8,9.5,21.3,21.3,21.3c3.2,0,6.2-0.7,8.9-1.9l39.5,39.5c-0.4,1.4-0.6,2.9-0.6,4.4
		c0,8.6,6.9,15.5,15.5,15.5c8.6,0,15.5-6.9,15.5-15.5C220,76,213.1,69,204.5,69z M204.5,92.2c-4.2,0-7.6-3.4-7.6-7.6
		c0-4.2,3.4-7.6,7.6-7.6s7.6,3.4,7.6,7.6C212.2,88.7,208.7,92.2,204.5,92.2z"/>
</g>
<g>
	<path fill="#02C8AF" d="M133.2,137.8c0.7,0.7,1.5,1,2.5,1c0.9,0,1.8-0.4,2.5-1l9.4-9.4c1.4-1.4,1.4-3.6,0-4.9l-9.4-9.4
		c-0.7-0.7-1.5-1-2.5-1c-0.9,0-1.8,0.4-2.5,1l-9.4,9.4c-0.7,0.7-1,1.5-1,2.5c0,0.9,0.4,1.8,1,2.5L133.2,137.8z M135.6,121.5
		c2.5,0,4.5,2,4.5,4.5c0,2.5-2,4.5-4.5,4.5c-2.5,0-4.5-2-4.5-4.5C131.1,123.5,133.1,121.5,135.6,121.5z"/>
	<path fill="#02C8AF" d="M205.9,180.8c-0.9,0-1.7,0.1-2.6,0.2l-40.7-40.7c0.8-2.3,1.3-4.7,1.3-7.3c0-11.8-9.5-21.3-21.3-21.3
		c-0.6,0-1.2,0-1.8,0.1l9.1,9.1c2.8,2.8,2.8,7.3,0,10l-9.4,9.4c-1.4,1.4-3.2,2.1-5,2.1c-1.8,0-3.6-0.7-5-2.1l-9.2-9.2
		c0,0.6-0.1,1.2-0.1,1.8c0,11.8,9.5,21.3,21.3,21.3c3.2,0,6.2-0.7,8.9-1.9l39.5,39.5c-0.4,1.4-0.6,2.9-0.6,4.4
		c0,8.6,6.9,15.5,15.5,15.5c8.6,0,15.5-6.9,15.5-15.5C221.4,187.7,214.5,180.8,205.9,180.8z M205.9,203.9c-4.2,0-7.6-3.4-7.6-7.6
		c0-4.2,3.4-7.6,7.6-7.6s7.6,3.4,7.6,7.6C213.6,200.5,210.1,203.9,205.9,203.9z"/>
</g>
<g opacity="0.26">
	<path fill="#050505" d="M423,24c0,4.5,3.6,8.1,8.1,8.1h9.4h6.7L423.6,0.7c-0.1-0.1-0.1-0.1-0.2-0.2c0,0,0,0-0.1-0.1
		c0,0-0.1-0.1-0.2-0.1c0,0,0,0-0.1,0c0,0-0.1-0.1-0.1-0.1l0,8.6V24z"/>
	<path fill="#050505" d="M443.4,35.8h-12.1c-0.1,0-0.1,0-0.2,0h-44.4c-1,0-1.9-0.8-1.9-1.9c0-1,0.8-1.9,1.9-1.9h35.7
		c-2-2.1-3.2-5-3.2-8.1v-4.2l-32.5,0c-1,0-1.9-0.8-1.9-1.9c0-1,0.8-1.9,1.9-1.9h32.5V3.8V0h-33.1l-3.9,0.1
		c-5.8,0.7-10.4,5.7-10.4,11.8v76.3c0,3.2,1.2,6.2,3.5,8.4c2.2,2.2,5.2,3.5,8.4,3.5h52.6c5.9,0,10.8-4.3,11.7-10l0.1-3.8V35.8
		L443.4,35.8z M435.5,84h-49.7c-1,0-1.9-0.8-1.9-1.9c0-1,0.8-1.9,1.9-1.9h49.7c1,0,1.9,0.8,1.9,1.9C437.4,83.1,436.5,84,435.5,84z
		 M435.5,67.9h-49.7c-1,0-1.9-0.8-1.9-1.9c0-1,0.8-1.9,1.9-1.9h49.7c1,0,1.9,0.9,1.9,1.9C437.4,67.1,436.5,67.9,435.5,67.9z
		 M435.5,51.9h-49.7c-1,0-1.9-0.8-1.9-1.9c0-1,0.8-1.9,1.9-1.9h49.7c1,0,1.9,0.8,1.9,1.9C437.4,51,436.5,51.9,435.5,51.9z"/>
</g>
<g>
	<path fill="#02C8AF" d="M423,136c0,4.5,3.6,8.1,8.1,8.1h9.4h6.7l-23.6-31.3c-0.1-0.1-0.1-0.1-0.2-0.2c0,0,0,0-0.1-0.1
		c0,0-0.1-0.1-0.2-0.1c0,0,0,0-0.1,0c0,0-0.1-0.1-0.1-0.1l0,8.6V136z"/>
	<path fill="#02C8AF" d="M443.4,147.8h-12.1c-0.1,0-0.1,0-0.2,0h-44.4c-1,0-1.9-0.8-1.9-1.9c0-1,0.8-1.9,1.9-1.9h35.7
		c-2-2.1-3.2-5-3.2-8.1v-4.2l-32.5,0c-1,0-1.9-0.8-1.9-1.9c0-1,0.8-1.9,1.9-1.9h32.5v-12.3V112h-33.1l-3.9,0.1
		c-5.8,0.7-10.4,5.7-10.4,11.8v76.3c0,3.2,1.2,6.2,3.5,8.4c2.2,2.2,5.2,3.5,8.4,3.5h52.6c5.9,0,10.8-4.3,11.7-10l0.1-3.8v-50.3
		L443.4,147.8z M435.5,196h-49.7c-1,0-1.9-0.8-1.9-1.9c0-1,0.8-1.9,1.9-1.9h49.7c1,0,1.9,0.8,1.9,1.9
		C437.4,195.1,436.5,196,435.5,196z M435.5,179.9h-49.7c-1,0-1.9-0.8-1.9-1.9c0-1,0.8-1.9,1.9-1.9h49.7c1,0,1.9,0.9,1.9,1.9
		C437.4,179.1,436.5,179.9,435.5,179.9z M435.5,163.9h-49.7c-1,0-1.9-0.8-1.9-1.9c0-1,0.8-1.9,1.9-1.9h49.7c1,0,1.9,0.8,1.9,1.9
		C437.4,163,436.5,163.9,435.5,163.9z"/>
</g>
<g opacity="0.26">
	<path fill="#050505" d="M293.9,96.4h-7.9c-1,0-1.8,0.8-1.8,1.8c0,1,0.8,1.8,1.8,1.8h7.9c1,0,1.8-0.8,1.8-1.8
		C295.7,97.2,294.9,96.4,293.9,96.4z"/>
	<path fill="#050505" d="M301.5,82.6h-23c-1,0-1.8,0.8-1.8,1.8v4.4c0,0.1,0,0.3,0,0.4c0.3,3,2.8,5.2,5.8,5.2h14.9
		c3,0,5.5-2.3,5.8-5.2c0-0.1,0-0.3,0-0.4v-4.4C303.3,83.4,302.5,82.6,301.5,82.6z"/>
	<g>
		<polygon fill="#050505" points="300.9,48.5 298.4,48.5 295.8,46.4 292.8,49.8 290,46.5 287.1,49.8 284.1,46.4 281.5,48.5 
			279.1,48.5 283.5,80.1 296.1,80.1 		"/>
		<path fill="#050505" d="M290,0c-20.1,0-36.5,16.4-36.5,36.5c0,10.3,4.4,20.2,12.1,27.1c0,0,0.1,0.1,0.1,0.1l0.5,0.4
			c9.8,8.4,10.4,13.8,10.4,14.2c0,0.5,0.2,0.9,0.5,1.3c0.3,0.4,0.8,0.5,1.3,0.5h2.6l-4.4-32c-0.1-0.5,0.1-1.1,0.5-1.5
			c0.3-0.4,0.8-0.6,1.3-0.6h2.2l2.5-2c0.8-0.6,1.8-0.5,2.5,0.2l1.5,1.8l1.5-1.7c0.3-0.4,0.8-0.6,1.3-0.6c0.6,0,1.1,0.2,1.4,0.6
			l1.4,1.7l1.6-1.7c0.6-0.7,1.8-0.8,2.5-0.2l2.4,2h2.3c0.5,0,1,0.2,1.4,0.6c0.3,0.4,0.5,0.9,0.4,1.5l-4.8,32h3c0.5,0,1-0.2,1.3-0.5
			c0.3-0.3,0.5-0.8,0.5-1.3c0-0.4,0.7-5.7,10.2-14c0.2-0.2,0.4-0.4,0.6-0.5l0.1-0.1c0,0,0.1-0.1,0.1-0.1
			c7.7-6.9,12.1-16.8,12.1-27.2C326.5,16.4,310.1,0,290,0z"/>
	</g>
</g>
<g>
	<path fill="#02C8AF" d="M293.9,208.4h-7.9c-1,0-1.8,0.8-1.8,1.8c0,1,0.8,1.8,1.8,1.8h7.9c1,0,1.8-0.8,1.8-1.8
		C295.7,209.2,294.9,208.4,293.9,208.4z"/>
	<path fill="#02C8AF" d="M301.5,194.6h-23c-1,0-1.8,0.8-1.8,1.8v4.4c0,0.1,0,0.3,0,0.4c0.3,3,2.8,5.2,5.8,5.2h14.9
		c3,0,5.5-2.3,5.8-5.2c0-0.1,0-0.3,0-0.4v-4.4C303.3,195.4,302.5,194.6,301.5,194.6z"/>
	<g>
		<polygon fill="#02C8AF" points="300.9,160.5 298.4,160.5 295.8,158.4 292.8,161.8 290,158.5 287.1,161.8 284.1,158.4 281.5,160.5 
			279.1,160.5 283.5,192.1 296.1,192.1 		"/>
		<path fill="#02C8AF" d="M290,112c-20.1,0-36.5,16.4-36.5,36.5c0,10.3,4.4,20.2,12.1,27.1c0,0,0.1,0.1,0.1,0.1l0.5,0.4
			c9.8,8.4,10.4,13.8,10.4,14.2c0,0.5,0.2,0.9,0.5,1.3c0.3,0.4,0.8,0.5,1.3,0.5h2.6l-4.4-32c-0.1-0.5,0.1-1.1,0.5-1.5
			c0.3-0.4,0.8-0.6,1.3-0.6h2.2l2.5-2c0.8-0.6,1.8-0.5,2.5,0.2l1.5,1.8l1.5-1.7c0.3-0.4,0.8-0.6,1.3-0.6c0.6,0,1.1,0.2,1.4,0.6
			l1.4,1.7l1.6-1.7c0.6-0.7,1.8-0.8,2.5-0.2l2.4,2h2.3c0.5,0,1,0.2,1.4,0.6c0.3,0.4,0.5,0.9,0.4,1.5l-4.8,32h3c0.5,0,1-0.2,1.3-0.5
			c0.3-0.3,0.5-0.8,0.5-1.3c0-0.4,0.7-5.7,10.2-14c0.2-0.2,0.4-0.4,0.6-0.5l0.1-0.1c0,0,0.1-0.1,0.1-0.1
			c7.7-6.9,12.1-16.8,12.1-27.2C326.5,128.4,310.1,112,290,112z"/>
	</g>
</g>
</svg>
