<?xml version="1.0" encoding="utf-8"?>
<!-- Generator: Adobe Illustrator 16.0.0, SVG Export Plug-In . SVG Version: 6.00 Build 0)  -->
<!DOCTYPE svg PUBLIC "-//W3C//DTD SVG 1.1//EN" "http://www.w3.org/Graphics/SVG/1.1/DTD/svg11.dtd">
<svg version="1.1" id="Capa_1" xmlns="http://www.w3.org/2000/svg" xmlns:xlink="http://www.w3.org/1999/xlink" x="0px" y="0px"
	 width="100px" height="100px" viewBox="0 0 100 100" enable-background="new 0 0 100 100" xml:space="preserve">
<g>
	<path fill="#02C8AF" d="M53.949,96.4H46.05c-1,0-1.8,0.8-1.8,1.8s0.8,1.8,1.8,1.8h7.899c1,0,1.801-0.8,1.801-1.8
		S54.949,96.4,53.949,96.4z"/>
	<path fill="#02C8AF" d="M61.55,82.6h-23c-1,0-1.8,0.801-1.8,1.801V88.8c0,0.101,0,0.3,0,0.4c0.3,3,2.8,5.2,5.8,5.2h14.899
		c3,0,5.5-2.301,5.801-5.2c0-0.101,0-0.3,0-0.4V84.4C63.35,83.4,62.55,82.6,61.55,82.6z"/>
	<g>
		<polygon fill="#02C8AF" points="60.949,48.5 58.449,48.5 55.85,46.4 52.85,49.8 50.05,46.5 47.15,49.8 44.15,46.4 41.55,48.5 
			39.15,48.5 43.55,80.1 56.15,80.1 		"/>
		<path fill="#02C8AF" d="M50.05,0c-20.1,0-36.5,16.4-36.5,36.5c0,10.3,4.4,20.2,12.1,27.1l0.1,0.101l0.5,0.399
			c9.8,8.4,10.4,13.801,10.4,14.2c0,0.5,0.2,0.9,0.5,1.3c0.3,0.4,0.8,0.5,1.3,0.5h2.6l-4.4-32c-0.1-0.5,0.1-1.1,0.5-1.5
			c0.3-0.399,0.8-0.6,1.3-0.6h2.2l2.5-2c0.8-0.6,1.8-0.5,2.5,0.2l1.5,1.8l1.5-1.7c0.3-0.399,0.8-0.6,1.3-0.6c0.6,0,1.1,0.2,1.4,0.6
			l1.4,1.7l1.6-1.7c0.6-0.7,1.801-0.8,2.5-0.2l2.4,2h2.3c0.5,0,1,0.2,1.399,0.601c0.301,0.399,0.5,0.899,0.4,1.5l-4.8,32h3
			c0.5,0,1-0.2,1.3-0.5c0.301-0.3,0.5-0.8,0.5-1.3c0-0.4,0.7-5.7,10.2-14c0.2-0.2,0.399-0.4,0.601-0.5l0.1-0.101l0.1-0.1
			c7.7-6.9,12.1-16.8,12.1-27.2C86.55,16.4,70.15,0,50.05,0z"/>
	</g>
</g>
</svg>
