<?xml version="1.0" encoding="utf-8"?>
<!-- Generator: Adobe Illustrator 16.0.0, SVG Export Plug-In . SVG Version: 6.00 Build 0)  -->
<!DOCTYPE svg PUBLIC "-//W3C//DTD SVG 1.1//EN" "http://www.w3.org/Graphics/SVG/1.1/DTD/svg11.dtd">
<svg version="1.1" id="Capa_1" xmlns="http://www.w3.org/2000/svg" xmlns:xlink="http://www.w3.org/1999/xlink" x="0px" y="0px"
	 width="100px" height="100px" viewBox="0 0 100 100" enable-background="new 0 0 100 100" xml:space="preserve">
<g opacity="0.26">
	<path fill="#050505" d="M-60.8-71c-0.7,0-1.5,0.3-2,0.8l-10.2,10.2l-4.1-4.1c-1.1-1.1-2.9-1.1-4,0c-1.1,1.1-1.1,2.9,0,4l6.1,6.1
		c0.6,0.6,1.3,0.8,2,0.8s1.5-0.3,2-0.8l1-1l11.2-11.2c1.1-1.1,1.1-2.9,0-4C-59.4-70.7-60.1-71-60.8-71z"/>
	<path fill="#050505" d="M-20-67.8c-0.1-1.2-0.8-2.3-1.7-3.1l-6.8-5.1l2.5-8.2c0.4-1.2,0.2-2.4-0.4-3.5c-0.6-1.1-1.6-1.8-2.8-2.1
		l-8.3-1.9l-1.1-8.5c-0.2-1.2-0.8-2.3-1.8-3c-0.8-0.6-1.7-0.8-2.6-0.8c-0.3,0-0.6,0-0.8,0.1l-8.4,1.6l-4.4-7.3c-0.6-1-1.7-1.8-2.9-2
		c-0.3-0.1-0.6-0.1-0.9-0.1c-0.9,0-1.8,0.3-2.5,0.8l-7,4.9l-7-4.9c-0.7-0.5-1.6-0.8-2.5-0.8c-0.3,0-0.6,0-0.9,0.1
		c-1.2,0.3-2.2,1-2.9,2l-4.4,7.3l-8.4-1.6c-0.3-0.1-0.6-0.1-0.8-0.1c-0.9,0-1.8,0.3-2.6,0.8c-1,0.7-1.6,1.8-1.8,3l-1.1,8.5l-8.3,1.9
		c-1.2,0.3-2.2,1-2.8,2.1c-0.6,1.1-0.8,2.3-0.4,3.5l2.5,8.2l-6.8,5.1c-1,0.7-1.6,1.9-1.7,3.1c-0.1,1.2,0.3,2.4,1.1,3.4l5.6,6.4
		l-4.1,7.5c-0.6,1.1-0.7,2.3-0.3,3.5s1.2,2.1,2.3,2.6l7.7,3.6l-0.7,8.5c-0.1,1.2,0.3,2.4,1.1,3.3c0.8,0.9,2,1.4,3.2,1.5l8.5,0.2
		l2.8,8c0.4,1.2,1.3,2.1,2.4,2.6c0.6,0.3,1.2,0.4,1.8,0.4c0.6,0,1.2-0.1,1.7-0.3l7.9-3.3l5.8,6.2c0.8,0.9,2,1.4,3.2,1.4
		c1.2,0,2.4-0.5,3.2-1.4l5.8-6.2l7.9,3.3c0.5,0.2,1.1,0.3,1.7,0.3c0.6,0,1.2-0.1,1.8-0.4c1.1-0.5,2-1.4,2.4-2.6l2.8-8l8.5-0.2
		c1.2,0,2.4-0.6,3.2-1.5c0.8-0.9,1.2-2.1,1.1-3.3l-0.7-8.5l7.7-3.6c1.1-0.5,2-1.5,2.3-2.6c0.4-1.2,0.3-2.4-0.3-3.5l-4.1-7.5l5.6-6.4
		C-20.3-65.3-19.9-66.5-20-67.8z M-70-33.1c-15.9,0-28.9-12.9-28.9-28.9s13-28.9,28.9-28.9c15.9,0,28.9,13,28.9,28.9
		C-41.1-46.1-54.1-33.1-70-33.1z"/>
</g>
<g>
	<path fill="#02C8AF" d="M-60.8,41c-0.7,0-1.5,0.3-2,0.8l-10.2,10.2l-4.1-4.1c-1.1-1.1-2.9-1.1-4,0c-1.1,1.1-1.1,2.9,0,4l6.1,6.1
		c0.6,0.6,1.3,0.8,2,0.8s1.5-0.3,2-0.8l1-1l11.2-11.2c1.1-1.1,1.1-2.9,0-4C-59.4,41.3-60.1,41-60.8,41z"/>
	<path fill="#02C8AF" d="M-20,44.2c-0.1-1.2-0.8-2.3-1.7-3.1l-6.8-5.1l2.5-8.2c0.4-1.2,0.2-2.4-0.4-3.5c-0.6-1.1-1.6-1.8-2.8-2.1
		l-8.3-1.9l-1.1-8.5c-0.2-1.2-0.8-2.3-1.8-3C-41.2,8.3-42.1,8-43.1,8c-0.3,0-0.6,0-0.8,0.1l-8.4,1.6l-4.4-7.3c-0.6-1-1.7-1.8-2.9-2
		c-0.3-0.1-0.6-0.1-0.9-0.1c-0.9,0-1.8,0.3-2.5,0.8l-7,4.9L-77,1c-0.7-0.5-1.6-0.8-2.5-0.8c-0.3,0-0.6,0-0.9,0.1
		c-1.2,0.3-2.2,1-2.9,2l-4.4,7.3l-8.4-1.6C-96.4,8-96.6,8-96.9,8c-0.9,0-1.8,0.3-2.6,0.8c-1,0.7-1.6,1.8-1.8,3l-1.1,8.5l-8.3,1.9
		c-1.2,0.3-2.2,1-2.8,2.1c-0.6,1.1-0.8,2.3-0.4,3.5l2.5,8.2l-6.8,5.1c-1,0.7-1.6,1.9-1.7,3.1c-0.1,1.2,0.3,2.4,1.1,3.4l5.6,6.4
		l-4.1,7.5c-0.6,1.1-0.7,2.3-0.3,3.5s1.2,2.1,2.3,2.6l7.7,3.6l-0.7,8.5c-0.1,1.2,0.3,2.4,1.1,3.3c0.8,0.9,2,1.4,3.2,1.5l8.5,0.2
		l2.8,8c0.4,1.2,1.3,2.1,2.4,2.6c0.6,0.3,1.2,0.4,1.8,0.4c0.6,0,1.2-0.1,1.7-0.3l7.9-3.3l5.8,6.2c0.8,0.9,2,1.4,3.2,1.4
		c1.2,0,2.4-0.5,3.2-1.4l5.8-6.2l7.9,3.3c0.5,0.2,1.1,0.3,1.7,0.3c0.6,0,1.2-0.1,1.8-0.4c1.1-0.5,2-1.4,2.4-2.6l2.8-8l8.5-0.2
		c1.2,0,2.4-0.6,3.2-1.5c0.8-0.9,1.2-2.1,1.1-3.3l-0.7-8.5l7.7-3.6c1.1-0.5,2-1.5,2.3-2.6c0.4-1.2,0.3-2.4-0.3-3.5l-4.1-7.5l5.6-6.4
		C-20.3,46.7-19.9,45.5-20,44.2z M-70,78.9c-15.9,0-28.9-12.9-28.9-28.9s13-28.9,28.9-28.9c15.9,0,28.9,13,28.9,28.9
		C-41.1,65.9-54.1,78.9-70,78.9z"/>
</g>
<g opacity="0.26">
	<path fill="#050505" d="M11.8-85.9c0.7,0.7,1.5,1,2.5,1c0.9,0,1.8-0.4,2.5-1l9.4-9.4c1.4-1.4,1.4-3.6,0-4.9l-9.4-9.4
		c-0.7-0.7-1.5-1-2.5-1c-0.9,0-1.8,0.4-2.5,1l-9.4,9.4c-0.7,0.7-1,1.5-1,2.5c0,0.9,0.4,1.8,1,2.5L11.8-85.9z M14.2-102.3
		c2.5,0,4.5,2,4.5,4.5c0,2.5-2,4.5-4.5,4.5c-2.5,0-4.5-2-4.5-4.5C9.7-100.3,11.7-102.3,14.2-102.3z"/>
	<path fill="#050505" d="M84.5-43c-0.9,0-1.7,0.1-2.6,0.2L41.3-83.5c0.8-2.3,1.3-4.7,1.3-7.3c0-11.8-9.5-21.3-21.3-21.3
		c-0.6,0-1.2,0-1.8,0.1l9.1,9.1c2.8,2.8,2.8,7.3,0,10l-9.4,9.4c-1.4,1.4-3.2,2.1-5,2.1c-1.8,0-3.6-0.7-5-2.1l-9.2-9.2
		C0-91.9,0-91.3,0-90.7C0-79,9.5-69.5,21.3-69.5c3.2,0,6.2-0.7,8.9-1.9l39.5,39.5C69.3-30.5,69-29,69-27.5C69-18.9,76-12,84.5-12
		c8.6,0,15.5-6.9,15.5-15.5C100-36,93.1-43,84.5-43z M84.5-19.8c-4.2,0-7.6-3.4-7.6-7.6c0-4.2,3.4-7.6,7.6-7.6s7.6,3.4,7.6,7.6
		C92.2-23.3,88.7-19.8,84.5-19.8z"/>
</g>
<g>
	<path fill="#02C8AF" d="M13.2,25.8c0.7,0.7,1.5,1,2.5,1c0.9,0,1.8-0.4,2.5-1l9.4-9.4c1.4-1.4,1.4-3.6,0-4.9l-9.4-9.4
		c-0.7-0.7-1.5-1-2.5-1c-0.9,0-1.8,0.4-2.5,1l-9.4,9.4c-0.7,0.7-1,1.5-1,2.5c0,0.9,0.4,1.8,1,2.5L13.2,25.8z M15.6,9.5
		c2.5,0,4.5,2,4.5,4.5c0,2.5-2,4.5-4.5,4.5c-2.5,0-4.5-2-4.5-4.5C11.1,11.5,13.1,9.5,15.6,9.5z"/>
	<path fill="#02C8AF" d="M85.9,68.8c-0.9,0-1.7,0.1-2.6,0.2L42.7,28.3c0.8-2.3,1.3-4.7,1.3-7.3c0-11.8-9.5-21.3-21.3-21.3
		c-0.6,0-1.2,0-1.8,0.1L30,9c2.8,2.8,2.8,7.3,0,10l-9.4,9.4c-1.4,1.4-3.2,2.1-5,2.1c-1.8,0-3.6-0.7-5-2.1l-9.2-9.2
		c0,0.6-0.1,1.2-0.1,1.8c0,11.8,9.5,21.3,21.3,21.3c3.2,0,6.2-0.7,8.9-1.9l39.5,39.5c-0.4,1.4-0.6,2.9-0.6,4.4
		c0,8.6,6.9,15.5,15.5,15.5c8.6,0,15.5-6.9,15.5-15.5C101.4,75.7,94.5,68.8,85.9,68.8z M85.9,91.9c-4.2,0-7.6-3.4-7.6-7.6
		c0-4.2,3.4-7.6,7.6-7.6s7.6,3.4,7.6,7.6C93.6,88.5,90.1,91.9,85.9,91.9z"/>
</g>
<g opacity="0.26">
	<path fill="#050505" d="M303-88c0,4.5,3.6,8.1,8.1,8.1h9.4h6.7l-23.6-31.3c-0.1-0.1-0.1-0.1-0.2-0.2c0,0,0,0-0.1-0.1
		c0,0-0.1-0.1-0.2-0.1c0,0,0,0-0.1,0c0,0-0.1-0.1-0.1-0.1l0,8.6V-88z"/>
	<path fill="#050505" d="M323.4-76.2h-12.1c-0.1,0-0.1,0-0.2,0h-44.4c-1,0-1.9-0.8-1.9-1.9c0-1,0.8-1.9,1.9-1.9h35.7
		c-2-2.1-3.2-5-3.2-8.1v-4.2l-32.5,0c-1,0-1.9-0.8-1.9-1.9c0-1,0.8-1.9,1.9-1.9h32.5v-12.3v-3.8h-33.1l-3.9,0.1
		c-5.8,0.7-10.4,5.7-10.4,11.8v76.3c0,3.2,1.2,6.2,3.5,8.4c2.2,2.2,5.2,3.5,8.4,3.5h52.6c5.9,0,10.8-4.3,11.7-10l0.1-3.8v-50.3
		L323.4-76.2z M315.5-28h-49.7c-1,0-1.9-0.8-1.9-1.9c0-1,0.8-1.9,1.9-1.9h49.7c1,0,1.9,0.8,1.9,1.9C317.4-28.9,316.5-28,315.5-28z
		 M315.5-44.1h-49.7c-1,0-1.9-0.8-1.9-1.9c0-1,0.8-1.9,1.9-1.9h49.7c1,0,1.9,0.9,1.9,1.9C317.4-44.9,316.5-44.1,315.5-44.1z
		 M315.5-60.1h-49.7c-1,0-1.9-0.8-1.9-1.9c0-1,0.8-1.9,1.9-1.9h49.7c1,0,1.9,0.8,1.9,1.9C317.4-61,316.5-60.1,315.5-60.1z"/>
</g>
<g>
	<path fill="#02C8AF" d="M303,24c0,4.5,3.6,8.1,8.1,8.1h9.4h6.7L303.6,0.7c-0.1-0.1-0.1-0.1-0.2-0.2c0,0,0,0-0.1-0.1
		c0,0-0.1-0.1-0.2-0.1c0,0,0,0-0.1,0c0,0-0.1-0.1-0.1-0.1l0,8.6V24z"/>
	<path fill="#02C8AF" d="M323.4,35.8h-12.1c-0.1,0-0.1,0-0.2,0h-44.4c-1,0-1.9-0.8-1.9-1.9c0-1,0.8-1.9,1.9-1.9h35.7
		c-2-2.1-3.2-5-3.2-8.1v-4.2l-32.5,0c-1,0-1.9-0.8-1.9-1.9c0-1,0.8-1.9,1.9-1.9h32.5V3.8V0h-33.1l-3.9,0.1
		c-5.8,0.7-10.4,5.7-10.4,11.8v76.3c0,3.2,1.2,6.2,3.5,8.4c2.2,2.2,5.2,3.5,8.4,3.5h52.6c5.9,0,10.8-4.3,11.7-10l0.1-3.8V35.8
		L323.4,35.8z M315.5,84h-49.7c-1,0-1.9-0.8-1.9-1.9c0-1,0.8-1.9,1.9-1.9h49.7c1,0,1.9,0.8,1.9,1.9C317.4,83.1,316.5,84,315.5,84z
		 M315.5,67.9h-49.7c-1,0-1.9-0.8-1.9-1.9c0-1,0.8-1.9,1.9-1.9h49.7c1,0,1.9,0.9,1.9,1.9C317.4,67.1,316.5,67.9,315.5,67.9z
		 M315.5,51.9h-49.7c-1,0-1.9-0.8-1.9-1.9c0-1,0.8-1.9,1.9-1.9h49.7c1,0,1.9,0.8,1.9,1.9C317.4,51,316.5,51.9,315.5,51.9z"/>
</g>
<g opacity="0.26">
	<path fill="#050505" d="M173.9-15.6h-7.9c-1,0-1.8,0.8-1.8,1.8c0,1,0.8,1.8,1.8,1.8h7.9c1,0,1.8-0.8,1.8-1.8
		C175.7-14.8,174.9-15.6,173.9-15.6z"/>
	<path fill="#050505" d="M181.5-29.4h-23c-1,0-1.8,0.8-1.8,1.8v4.4c0,0.1,0,0.3,0,0.4c0.3,3,2.8,5.2,5.8,5.2h14.9
		c3,0,5.5-2.3,5.8-5.2c0-0.1,0-0.3,0-0.4v-4.4C183.3-28.6,182.5-29.4,181.5-29.4z"/>
	<g>
		<polygon fill="#050505" points="180.9,-63.5 178.4,-63.5 175.8,-65.6 172.8,-62.2 170,-65.5 167.1,-62.2 164.1,-65.6 161.5,-63.5 
			159.1,-63.5 163.5,-31.9 176.1,-31.9 		"/>
		<path fill="#050505" d="M170-112c-20.1,0-36.5,16.4-36.5,36.5c0,10.3,4.4,20.2,12.1,27.1c0,0,0.1,0.1,0.1,0.1l0.5,0.4
			c9.8,8.4,10.4,13.8,10.4,14.2c0,0.5,0.2,0.9,0.5,1.3c0.3,0.4,0.8,0.5,1.3,0.5h2.6l-4.4-32c-0.1-0.5,0.1-1.1,0.5-1.5
			c0.3-0.4,0.8-0.6,1.3-0.6h2.2l2.5-2c0.8-0.6,1.8-0.5,2.5,0.2l1.5,1.8l1.5-1.7c0.3-0.4,0.8-0.6,1.3-0.6c0.6,0,1.1,0.2,1.4,0.6
			l1.4,1.7l1.6-1.7c0.6-0.7,1.8-0.8,2.5-0.2l2.4,2h2.3c0.5,0,1,0.2,1.4,0.6c0.3,0.4,0.5,0.9,0.4,1.5l-4.8,32h3c0.5,0,1-0.2,1.3-0.5
			c0.3-0.3,0.5-0.8,0.5-1.3c0-0.4,0.7-5.7,10.2-14c0.2-0.2,0.4-0.4,0.6-0.5l0.1-0.1c0,0,0.1-0.1,0.1-0.1
			c7.7-6.9,12.1-16.8,12.1-27.2C206.5-95.6,190.1-112,170-112z"/>
	</g>
</g>
<g>
	<path fill="#02C8AF" d="M173.9,96.4h-7.9c-1,0-1.8,0.8-1.8,1.8c0,1,0.8,1.8,1.8,1.8h7.9c1,0,1.8-0.8,1.8-1.8
		C175.7,97.2,174.9,96.4,173.9,96.4z"/>
	<path fill="#02C8AF" d="M181.5,82.6h-23c-1,0-1.8,0.8-1.8,1.8v4.4c0,0.1,0,0.3,0,0.4c0.3,3,2.8,5.2,5.8,5.2h14.9
		c3,0,5.5-2.3,5.8-5.2c0-0.1,0-0.3,0-0.4v-4.4C183.3,83.4,182.5,82.6,181.5,82.6z"/>
	<g>
		<polygon fill="#02C8AF" points="180.9,48.5 178.4,48.5 175.8,46.4 172.8,49.8 170,46.5 167.1,49.8 164.1,46.4 161.5,48.5 
			159.1,48.5 163.5,80.1 176.1,80.1 		"/>
		<path fill="#02C8AF" d="M170,0c-20.1,0-36.5,16.4-36.5,36.5c0,10.3,4.4,20.2,12.1,27.1c0,0,0.1,0.1,0.1,0.1l0.5,0.4
			c9.8,8.4,10.4,13.8,10.4,14.2c0,0.5,0.2,0.9,0.5,1.3c0.3,0.4,0.8,0.5,1.3,0.5h2.6l-4.4-32c-0.1-0.5,0.1-1.1,0.5-1.5
			c0.3-0.4,0.8-0.6,1.3-0.6h2.2l2.5-2c0.8-0.6,1.8-0.5,2.5,0.2l1.5,1.8l1.5-1.7c0.3-0.4,0.8-0.6,1.3-0.6c0.6,0,1.1,0.2,1.4,0.6
			l1.4,1.7l1.6-1.7c0.6-0.7,1.8-0.8,2.5-0.2l2.4,2h2.3c0.5,0,1,0.2,1.4,0.6c0.3,0.4,0.5,0.9,0.4,1.5l-4.8,32h3c0.5,0,1-0.2,1.3-0.5
			c0.3-0.3,0.5-0.8,0.5-1.3c0-0.4,0.7-5.7,10.2-14c0.2-0.2,0.4-0.4,0.6-0.5l0.1-0.1c0,0,0.1-0.1,0.1-0.1
			c7.7-6.9,12.1-16.8,12.1-27.2C206.5,16.4,190.1,0,170,0z"/>
	</g>
</g>
</svg>
