<?xml version="1.0" encoding="utf-8"?>
<!-- Generator: Adobe Illustrator 16.0.0, SVG Export Plug-In . SVG Version: 6.00 Build 0)  -->
<!DOCTYPE svg PUBLIC "-//W3C//DTD SVG 1.1//EN" "http://www.w3.org/Graphics/SVG/1.1/DTD/svg11.dtd">
<svg version="1.1" id="Capa_1" xmlns="http://www.w3.org/2000/svg" xmlns:xlink="http://www.w3.org/1999/xlink" x="0px" y="0px"
	 width="100px" height="100px" viewBox="0 0 100 100" enable-background="new 0 0 100 100" xml:space="preserve">
<g>
	<path fill="#02C8AF" d="M11.95,26.1c0.7,0.7,1.5,1,2.5,1c0.9,0,1.8-0.399,2.5-1l9.4-9.399c1.4-1.4,1.4-3.601,0-4.9l-9.4-9.4
		c-0.7-0.699-1.5-1-2.5-1c-0.9,0-1.8,0.4-2.5,1l-9.4,9.4c-0.7,0.7-1,1.5-1,2.5c0,0.9,0.4,1.8,1,2.5L11.95,26.1z M14.35,9.8
		c2.5,0,4.5,2,4.5,4.5s-2,4.5-4.5,4.5s-4.5-2-4.5-4.5S11.85,9.8,14.35,9.8z"/>
	<path fill="#02C8AF" d="M84.649,69.1c-0.9,0-1.7,0.101-2.601,0.2L41.35,28.6c0.8-2.3,1.3-4.7,1.3-7.3c0-11.8-9.5-21.3-21.3-21.3
		c-0.6,0-1.2,0-1.8,0.1l9.1,9.101c2.8,2.8,2.8,7.3,0,10l-9.4,9.399c-1.4,1.4-3.2,2.101-5,2.101s-3.6-0.7-5-2.101l-9.2-9.2
		c0,0.601-0.1,1.2-0.1,1.801c0,11.8,9.5,21.3,21.3,21.3c3.2,0,6.2-0.7,8.9-1.9l39.5,39.5c-0.4,1.4-0.601,2.9-0.601,4.4
		c0,8.6,6.9,15.5,15.5,15.5c8.601,0,15.5-6.9,15.5-15.5C100.149,76,93.249,69.1,84.649,69.1z M84.649,92.2
		c-4.2,0-7.601-3.4-7.601-7.601s3.4-7.6,7.601-7.6s7.6,3.399,7.6,7.6C92.35,88.8,88.85,92.2,84.649,92.2z"/>
</g>
</svg>
