<?xml version="1.0" encoding="utf-8"?>
<!-- Generator: Adobe Illustrator 16.0.0, SVG Export Plug-In . SVG Version: 6.00 Build 0)  -->
<!DOCTYPE svg PUBLIC "-//W3C//DTD SVG 1.1//EN" "http://www.w3.org/Graphics/SVG/1.1/DTD/svg11.dtd">
<svg version="1.1" id="Capa_1" xmlns="http://www.w3.org/2000/svg" xmlns:xlink="http://www.w3.org/1999/xlink" x="0px" y="0px"
	 width="340px" height="340.001px" viewBox="1080 361.481 340 340.001" enable-background="new 1080 361.481 340 340.001"
	 xml:space="preserve">
<g opacity="0.26">
	<g>
		<path d="M40.76,145.536l34.928-34.925L56.592,91.518c-9.627-9.629-9.627-25.297,0.002-34.928c9.627-9.628,25.295-9.63,34.924,0
			l84.291,84.291l34.924-34.924l-84.289-84.292c-28.889-28.889-75.891-28.887-104.777,0c-28.885,28.886-28.887,75.889,0,104.775
			L40.76,145.536z"/>
		<path d="M299.239,194.465l-34.924,34.928l19.094,19.093c9.629,9.63,9.627,25.296-0.002,34.927c-9.629,9.629-25.295,9.627-34.922,0
			l-84.292-84.291l-34.926,34.924l84.291,84.291c14.444,14.442,33.417,21.666,52.388,21.666c18.973,0,37.943-7.223,52.389-21.666
			c28.887-28.887,28.887-75.887,0-104.774L299.239,194.465z"/>
		<path d="M248.485,56.592c9.627-9.628,25.297-9.626,34.926,0.002c9.627,9.63,9.627,25.297,0,34.925L199.12,175.81l34.924,34.925
			l84.291-84.29c28.887-28.887,28.887-75.891,0-104.775C289.448-7.216,242.448-7.216,213.56,21.667l-19.095,19.095l34.927,34.928
			L248.485,56.592z"/>
		<path d="M91.519,283.409c-9.629,9.629-25.297,9.627-34.926-0.002c-9.629-9.629-9.629-25.295,0-34.923l84.291-84.291
			l-34.926-34.925L21.667,213.56c-28.887,28.886-28.887,75.888,0,104.772C36.109,332.777,55.081,340,74.056,339.999
			c18.969-0.002,37.945-7.224,52.389-21.664l19.094-19.097l-34.928-34.924L91.519,283.409z"/>
	</g>
</g>
<g>
	<g>
		<path fill="#01C8B1" d="M40.76,507.017l34.928-34.925L56.592,453c-9.627-9.629-9.627-25.297,0.002-34.928
			c9.627-9.628,25.295-9.63,34.924,0l84.291,84.291l34.924-34.924l-84.289-84.292c-28.889-28.889-75.891-28.887-104.777,0
			c-28.885,28.886-28.887,75.889,0,104.775L40.76,507.017z"/>
		<path fill="#01C8B1" d="M299.239,555.947l-34.924,34.928l19.094,19.093c9.629,9.63,9.627,25.296-0.002,34.927
			c-9.629,9.629-25.295,9.627-34.922,0l-84.292-84.291l-34.926,34.924l84.291,84.291c14.444,14.442,33.417,21.666,52.388,21.666
			c18.973,0,37.943-7.223,52.389-21.666c28.887-28.887,28.887-75.887,0-104.774L299.239,555.947z"/>
		<path fill="#01C8B1" d="M248.485,418.074c9.627-9.628,25.297-9.626,34.926,0.002c9.627,9.63,9.627,25.297,0,34.925l-84.291,84.291
			l34.924,34.925l84.291-84.29c28.887-28.887,28.887-75.891,0-104.775c-28.887-28.886-75.887-28.886-104.774-0.002l-19.095,19.095
			l34.927,34.928L248.485,418.074z"/>
		<path fill="#01C8B1" d="M91.519,644.89c-9.629,9.629-25.297,9.627-34.926-0.002c-9.629-9.629-9.629-25.295,0-34.923l84.291-84.291
			l-34.926-34.925l-84.291,84.292c-28.887,28.886-28.887,75.888,0,104.772c14.442,14.444,33.414,21.668,52.389,21.666
			c18.969-0.002,37.945-7.224,52.389-21.664l19.094-19.097l-34.928-34.924L91.519,644.89z"/>
	</g>
</g>
<g opacity="0.26">
	<g>
		<path d="M1191.842,197.993l15.718-15.717l-8.594-8.592c-4.332-4.334-4.332-11.385,0.001-15.717c4.332-4.334,11.383-4.334,15.716,0
			l37.932,37.93l15.716-15.715L1230.4,142.25c-13-13-34.151-13-47.149,0c-12.999,12.998-13,34.15,0,47.148L1191.842,197.993z"/>
		<path d="M1308.158,220.01l-15.716,15.719l8.593,8.59c4.333,4.334,4.332,11.385-0.001,15.719c-4.333,4.332-11.383,4.332-15.715,0
			l-37.932-37.932l-15.717,15.715l37.932,37.932c6.5,6.5,15.037,9.75,23.574,9.75s17.074-3.25,23.574-9.75
			c13-12.998,13-34.148,0-47.148L1308.158,220.01z"/>
		<path d="M1285.319,157.967c4.332-4.332,11.383-4.332,15.717,0c4.332,4.334,4.332,11.385,0,15.717l-37.932,37.932l15.716,15.717
			l37.931-37.932c13-13,13-34.15,0-47.148c-12.998-12.998-34.148-12.998-47.148-0.002l-8.592,8.594l15.717,15.717L1285.319,157.967z
			"/>
		<path d="M1214.684,260.036c-4.333,4.332-11.384,4.332-15.718-0.002c-4.333-4.332-4.333-11.383,0-15.715l37.932-37.932
			l-15.717-15.717l-37.931,37.934c-13,12.998-13,34.148,0,47.146c6.498,6.5,15.036,9.752,23.575,9.75
			c8.536,0,17.075-3.25,23.575-9.748l8.592-8.594l-15.718-15.717L1214.684,260.036z"/>
	</g>
</g>
<g opacity="0.26">
	<g id="extension_6_">
		<path d="M609.603,37.325l-15.919,15.92l-42.451-42.449c-11.678-11.68-30.789-11.686-42.468-0.008l-137.98,137.98
			c-11.677,11.678-11.667,30.785,0.011,42.465l137.981,137.98c11.673,11.672,30.776,11.676,42.453,0l40.336-40.338l-15.925-15.924
			c-15.919-15.92-15.925-41.389,0-57.313c15.919-15.92,41.397-15.924,57.316-0.006l15.925,15.926l40.327-40.326
			c11.679-11.68,11.677-30.785,0.006-42.457l-42.461-42.461l15.919-15.92c14.865-14.865,14.865-38.209,0.006-53.07
			C647.82,22.465,624.468,22.459,609.603,37.325z"/>
	</g>
</g>
<g>
	<g id="extension_1_">
		<path fill="#01C8B1" d="M609.603,398.805l-15.919,15.92l-42.451-42.449c-11.678-11.68-30.789-11.686-42.468-0.008l-137.98,137.98
			c-11.677,11.678-11.667,30.785,0.011,42.465l137.981,137.98c11.673,11.672,30.776,11.676,42.453,0l40.336-40.338l-15.925-15.924
			c-15.919-15.92-15.925-41.389,0-57.313c15.919-15.92,41.397-15.924,57.316-0.006l15.925,15.926l40.327-40.326
			c11.679-11.68,11.677-30.785,0.006-42.457l-42.461-42.461l15.919-15.92c14.865-14.865,14.865-38.209,0.006-53.07
			C647.82,383.946,624.468,383.94,609.603,398.805z"/>
	</g>
</g>
<g opacity="0.26">
	<path d="M1040.13,107.484c0.064,0.084,0.134,0.164,0.204,0.244l0.028,0.031c0,0.002,0.002,0.002,0.002,0.004
		c0.004,0.002,0.006,0.006,0.008,0.008l0.619,0.697c9.639,10.871,16.083,18.143,18.692,23.602
		c-7.968,1.924-23.096,5.584-38.155,9.277c-18.194,4.463-29.187,7.189-35.936,8.961l8.229-100.754
		c0.112,0.145,0.219,0.279,0.333,0.424l1.689,2.148L1040.13,107.484z"/>
	<path d="M897.674,306.476c-2.217,0.764-4.701,1.188-7.651,1.188c-2.815,0-5.317-0.434-7.888-1.385l-70.543-141.084h156.852
		L897.674,306.476z"/>
	<polygon points="889.884,37.58 966.604,152.654 813.164,152.654 	"/>
	<path d="M979.958,33.867c0.733,0.467,1.523,1.119,2.399,1.961l-8.543,104.617L901.741,32.337h65.78
		C975.139,32.337,977.659,32.408,979.958,33.867z"/>
	<path d="M878.305,32.337l-72.08,108.111l-8.543-104.406c2.454-2.525,4.05-3.328,7.816-3.584c0.077-0.006,0.151-0.012,0.229-0.016
		c0.123-0.008,0.258-0.012,0.386-0.02c1.64-0.076,3.697-0.086,6.41-0.086H878.305z"/>
	<path d="M784.232,52.089l1.657-2.107c0.108-0.139,0.21-0.266,0.316-0.4l8.251,100.826c-9.966-2.641-29.353-7.395-67.973-16.76
		c-2.274-0.553-4.379-1.063-6.167-1.496c2.517-5.51,9.06-12.941,19.362-24.389c0.079-0.09,0.159-0.184,0.234-0.279L784.232,52.089z"
		/>
	<path d="M739.589,165.703l-0.68-0.77c-7.304-8.27-12.732-14.416-16.047-19.258c0.22,0.053,0.437,0.105,0.665,0.162
		c17.88,4.336,62.962,15.268,73.477,18.227l59.059,118.115L739.589,165.703z"/>
	<path d="M1041.134,164.933l-0.68,0.77l-116.69,116.691l59.318-118.418c9.773-2.725,46.01-11.609,74.179-18.42
		C1053.954,150.416,1048.501,156.595,1041.134,164.933z"/>
</g>
<g>
	<path fill="#01C8B1" d="M1040.13,468.965c0.064,0.084,0.134,0.164,0.204,0.244l0.028,0.031c0,0.002,0.002,0.002,0.002,0.004
		c0.004,0.002,0.006,0.006,0.008,0.008l0.619,0.697c9.639,10.871,16.083,18.143,18.692,23.602
		c-7.968,1.924-23.096,5.584-38.155,9.277c-18.194,4.463-29.187,7.189-35.936,8.961l8.229-100.754
		c0.112,0.145,0.219,0.279,0.333,0.424l1.689,2.148L1040.13,468.965z"/>
	<path fill="#01C8B1" d="M897.674,667.958c-2.217,0.764-4.701,1.188-7.651,1.188c-2.815,0-5.317-0.434-7.888-1.385l-70.543-141.084
		h156.852L897.674,667.958z"/>
	<polygon fill="#01C8B1" points="889.884,399.061 966.604,514.135 813.164,514.135 	"/>
	<path fill="#01C8B1" d="M979.958,395.348c0.733,0.467,1.523,1.119,2.399,1.961l-8.543,104.617l-72.074-108.107h65.78
		C975.139,393.819,977.659,393.889,979.958,395.348z"/>
	<path fill="#01C8B1" d="M878.305,393.819l-72.08,108.111l-8.543-104.406c2.454-2.525,4.05-3.328,7.816-3.584
		c0.077-0.006,0.151-0.012,0.229-0.016c0.123-0.008,0.258-0.012,0.386-0.02c1.64-0.076,3.697-0.086,6.41-0.086H878.305z"/>
	<path fill="#01C8B1" d="M784.232,413.571l1.657-2.107c0.108-0.139,0.21-0.266,0.316-0.4l8.251,100.826
		c-9.966-2.641-29.353-7.395-67.973-16.76c-2.274-0.553-4.379-1.063-6.167-1.496c2.517-5.51,9.06-12.941,19.362-24.389
		c0.079-0.09,0.159-0.184,0.234-0.279L784.232,413.571z"/>
	<path fill="#01C8B1" d="M739.589,527.184l-0.68-0.77c-7.304-8.27-12.732-14.416-16.047-19.258c0.22,0.053,0.437,0.105,0.665,0.162
		c17.88,4.336,62.962,15.268,73.477,18.227l59.059,118.115L739.589,527.184z"/>
	<path fill="#01C8B1" d="M1041.134,526.415l-0.68,0.77l-116.69,116.691l59.318-118.418c9.773-2.725,46.01-11.609,74.179-18.42
		C1053.954,511.897,1048.501,518.077,1041.134,526.415z"/>
</g>
<path opacity="0.26" d="M1395.754,78.366c-0.004-0.254-0.02-0.506-0.047-0.752c-0.01-0.082-0.025-0.164-0.037-0.246
	c-0.031-0.209-0.066-0.414-0.115-0.615c-0.02-0.084-0.041-0.166-0.064-0.25c-0.055-0.209-0.121-0.414-0.193-0.615
	c-0.016-0.045-0.025-0.092-0.043-0.137l-27.211-70.861C1366.913,1.944,1364.083,0,1360.93,0h-221.857
	c-3.154,0-5.984,1.943-7.115,4.889l-27.211,70.861c-0.023,0.061-0.035,0.121-0.057,0.184c-0.066,0.184-0.127,0.369-0.178,0.559
	c-0.027,0.1-0.051,0.199-0.074,0.299c-0.041,0.186-0.074,0.373-0.104,0.563c-0.016,0.094-0.031,0.188-0.043,0.281
	c-0.025,0.234-0.039,0.469-0.043,0.705c0,0.047-0.008,0.094-0.008,0.141c0,0.006,0,0.01,0,0.016l0.424,205.098
	c0,31.102,25.305,56.406,56.408,56.406h178.068c31.219,0,56.619-25.305,56.619-56.406V78.481c0-0.002,0-0.004,0-0.006
	C1395.76,78.438,1395.754,78.401,1395.754,78.366z M1380.522,283.594c0,22.699-18.564,41.168-41.381,41.168h-178.068
	c-22.701,0-41.17-18.469-41.17-41.184L1119.497,86.1h261.025V283.594z"/>
<g>
	<g>
		<path fill="#01C8B1" d="M1191.842,559.474l15.718-15.717l-8.594-8.592c-4.332-4.334-4.332-11.385,0.001-15.717
			c4.332-4.334,11.383-4.334,15.716,0l37.932,37.93l15.716-15.715l-37.931-37.932c-13-13-34.151-13-47.149,0
			c-12.999,12.998-13,34.15,0,47.148L1191.842,559.474z"/>
		<path fill="#01C8B1" d="M1308.158,581.492l-15.716,15.719l8.593,8.59c4.333,4.334,4.332,11.385-0.001,15.719
			c-4.333,4.332-11.383,4.332-15.715,0l-37.932-37.932l-15.717,15.715l37.932,37.932c6.5,6.5,15.037,9.75,23.574,9.75
			s17.074-3.25,23.574-9.75c13-12.998,13-34.148,0-47.148L1308.158,581.492z"/>
		<path fill="#01C8B1" d="M1285.319,519.449c4.332-4.332,11.383-4.332,15.717,0c4.332,4.334,4.332,11.385,0,15.717l-37.932,37.932
			l15.716,15.717l37.931-37.932c13-13,13-34.15,0-47.148c-12.998-12.998-34.148-12.998-47.148-0.002l-8.592,8.594l15.717,15.717
			L1285.319,519.449z"/>
		<path fill="#01C8B1" d="M1214.684,621.517c-4.333,4.332-11.384,4.332-15.718-0.002c-4.333-4.332-4.333-11.383,0-15.715
			l37.932-37.932l-15.717-15.717l-37.931,37.934c-13,12.998-13,34.148,0,47.146c6.498,6.5,15.036,9.752,23.575,9.75
			c8.536,0,17.075-3.25,23.575-9.748l8.592-8.594l-15.718-15.717L1214.684,621.517z"/>
	</g>
</g>
<path fill="#01C8B1" d="M1395.754,439.847c-0.004-0.254-0.02-0.506-0.047-0.752c-0.01-0.082-0.025-0.164-0.037-0.246
	c-0.031-0.209-0.066-0.414-0.115-0.615c-0.02-0.084-0.041-0.166-0.064-0.25c-0.055-0.209-0.121-0.414-0.193-0.615
	c-0.016-0.045-0.025-0.092-0.043-0.137l-27.211-70.861c-1.131-2.945-3.961-4.889-7.113-4.889h-221.857
	c-3.154,0-5.984,1.943-7.115,4.889l-27.211,70.861c-0.023,0.061-0.035,0.121-0.057,0.184c-0.066,0.184-0.127,0.369-0.178,0.559
	c-0.027,0.1-0.051,0.199-0.074,0.299c-0.041,0.186-0.074,0.373-0.104,0.563c-0.016,0.094-0.031,0.188-0.043,0.281
	c-0.025,0.234-0.039,0.469-0.043,0.705c0,0.047-0.008,0.094-0.008,0.141c0,0.006,0,0.01,0,0.016l0.424,205.098
	c0,31.102,25.305,56.406,56.408,56.406h178.068c31.219,0,56.619-25.305,56.619-56.406V439.962c0-0.002,0-0.004,0-0.006
	C1395.76,439.919,1395.754,439.882,1395.754,439.847z M1380.522,645.076c0,22.699-18.564,41.168-41.381,41.168h-178.068
	c-22.701,0-41.17-18.469-41.17-41.184l-0.406-197.479h261.025V645.076z"/>
</svg>
