<?xml version="1.0" encoding="utf-8"?>
<!-- Generator: Adobe Illustrator 16.0.0, SVG Export Plug-In . SVG Version: 6.00 Build 0)  -->
<!DOCTYPE svg PUBLIC "-//W3C//DTD SVG 1.1//EN" "http://www.w3.org/Graphics/SVG/1.1/DTD/svg11.dtd">
<svg version="1.1" id="Capa_1" xmlns="http://www.w3.org/2000/svg" xmlns:xlink="http://www.w3.org/1999/xlink" x="0px" y="0px"
	 width="340px" height="340px" viewBox="0 0 340 340" enable-background="new 0 0 340 340" xml:space="preserve">
<g>
	<g>
		<g>
			<path fill="#02C8AF" d="M111.841,197.99l15.719-15.717l-8.595-8.592c-4.332-4.334-4.332-11.385,0.001-15.717
				c4.332-4.334,11.383-4.334,15.716,0l37.932,37.93l15.716-15.715l-37.93-37.932c-13-13-34.151-13-47.149,0
				c-12.999,12.998-13,34.15,0,47.148L111.841,197.99z"/>
			<path fill="#02C8AF" d="M228.157,220.009l-15.716,15.719l8.593,8.59c4.333,4.334,4.332,11.385-0.001,15.719
				c-4.333,4.332-11.383,4.332-15.715,0l-37.932-37.932l-15.717,15.715l37.931,37.932c6.5,6.5,15.037,9.75,23.574,9.75
				s17.074-3.25,23.574-9.75c13-12.998,13-34.148,0-47.148L228.157,220.009z"/>
			<path fill="#02C8AF" d="M205.318,157.966c4.332-4.332,11.383-4.332,15.717,0c4.332,4.334,4.332,11.385,0,15.717l-37.933,37.932
				l15.717,15.717L236.75,189.4c13-13,13-34.15,0-47.148c-12.998-12.998-34.147-12.998-47.147-0.002l-8.593,8.594l15.718,15.717
				L205.318,157.966z"/>
			<path fill="#02C8AF" d="M134.683,260.033c-4.333,4.332-11.384,4.332-15.718-0.002c-4.333-4.332-4.333-11.383,0-15.715
				l37.933-37.932l-15.718-15.717l-37.931,37.934c-13,12.998-13,34.148,0,47.146c6.498,6.5,15.036,9.752,23.575,9.75
				c8.536,0,17.074-3.25,23.574-9.748l8.593-8.594l-15.719-15.717L134.683,260.033z"/>
		</g>
	</g>
	<path fill="#02C8AF" d="M315.754,78.363c-0.004-0.254-0.02-0.506-0.047-0.752c-0.01-0.082-0.025-0.164-0.037-0.246
		c-0.031-0.209-0.066-0.414-0.115-0.613c-0.02-0.084-0.041-0.166-0.064-0.25c-0.055-0.209-0.121-0.414-0.193-0.615
		c-0.016-0.045-0.023-0.092-0.043-0.137L288.043,4.888c-1.131-2.945-3.961-4.89-7.113-4.89H59.074c-3.154,0-5.984,1.942-7.115,4.89
		L24.748,75.75c-0.023,0.061-0.035,0.119-0.057,0.184c-0.066,0.184-0.127,0.369-0.179,0.559c-0.026,0.1-0.051,0.199-0.073,0.299
		c-0.041,0.186-0.074,0.373-0.104,0.563c-0.016,0.094-0.031,0.189-0.043,0.281c-0.025,0.234-0.039,0.469-0.043,0.705
		c0,0.047-0.008,0.094-0.008,0.141c0,0.006,0,0.01,0,0.016l0.424,205.1c0,31.102,25.305,56.406,56.408,56.406h178.068
		c31.219,0,56.619-25.307,56.619-56.406V78.478c0-0.002,0-0.004,0-0.006C315.76,78.435,315.754,78.398,315.754,78.363z
		 M300.521,283.593c0,22.699-18.564,41.168-41.381,41.168H81.073c-22.701,0-41.17-18.469-41.17-41.186L39.497,86.097h261.025
		V283.593z"/>
</g>
</svg>
