<?xml version="1.0" encoding="utf-8"?>
<!-- Generator: Adobe Illustrator 22.0.1, SVG Export Plug-In . SVG Version: 6.00 Build 0)  -->
<svg version="1.1" id="Capa_1" xmlns="http://www.w3.org/2000/svg" xmlns:xlink="http://www.w3.org/1999/xlink" x="0px" y="0px"
	 viewBox="0 0 120 120" style="enable-background:new 0 0 120 120;" xml:space="preserve">
<style type="text/css">
	.st0{fill:#002A66;}
	.st1{fill:url(#SVGID_1_);}
</style>
<g>
	<circle class="st0" cx="60" cy="60" r="59"/>
	<g>
		
			<linearGradient id="SVGID_1_" gradientUnits="userSpaceOnUse" x1="-279.099" y1="29.721" x2="-208.099" y2="79.3877" gradientTransform="matrix(-1 0 0 1 -170.78 0)">
			<stop  offset="0" style="stop-color:#0068A5"/>
			<stop  offset="1" style="stop-color:#2FCABF"/>
		</linearGradient>
		<path class="st1" d="M18.6,56.7V74c0,1.3,1,2.3,2.3,2.3H27c0.9,4,4.5,7,8.7,7s7.8-3,8.7-7h25.2c0.9,4,4.5,7,8.7,7
			c4.3,0,7.8-3,8.7-7h9.3c1.3,0,2.3-1,2.3-2.3V38.3c0-1.3-1-2.3-2.3-2.3H51.6c-1.3,0-2.3,1-2.3,2.3v2.9H37.5c-0.8,0-1.6,0.4-2,1.1
			l-7,12.1h-7.6C19.6,54.4,18.6,55.4,18.6,56.7z M35.7,69.9c2.4,0,4.4,2,4.4,4.4c0,2.4-2,4.4-4.4,4.4s-4.4-2-4.4-4.4
			C31.3,71.9,33.3,69.9,35.7,69.9z M78.3,69.9c2.4,0,4.4,2,4.4,4.4c0,2.4-2,4.4-4.4,4.4c-2.4,0-4.4-2-4.4-4.4
			C73.9,71.9,75.9,69.9,78.3,69.9z M94.1,71.7h-7.2c-1.1-3.7-4.5-6.4-8.6-6.4c-4,0-7.4,2.7-8.6,6.4H53.9V40.5h40.3V71.7z M23.1,71.7
			V58.9h26.2v12.8h-5.1c-1.1-3.7-4.5-6.4-8.6-6.4s-7.4,2.7-8.6,6.4H23.1L23.1,71.7z M49.3,45.7v8.7H33.7l5.1-8.7H49.3z"/>
	</g>
</g>
</svg>
