<?xml version="1.0" encoding="utf-8"?>
<!-- Generator: Adobe Illustrator 16.0.0, SVG Export Plug-In . SVG Version: 6.00 Build 0)  -->
<!DOCTYPE svg PUBLIC "-//W3C//DTD SVG 1.1//EN" "http://www.w3.org/Graphics/SVG/1.1/DTD/svg11.dtd">
<svg version="1.1" id="Capa_1" xmlns="http://www.w3.org/2000/svg" xmlns:xlink="http://www.w3.org/1999/xlink" x="0px" y="0px"
	 width="100px" height="100px" viewBox="0 0 100 100" enable-background="new 0 0 100 100" xml:space="preserve">
<g>
	<path fill="#02C8AF" d="M59.1,41c-0.7,0-1.5,0.3-2,0.8L46.9,52l-4.1-4.1c-1.1-1.101-2.9-1.101-4,0c-1.1,1.1-1.1,2.899,0,4l6.1,6.1
		c0.6,0.6,1.3,0.8,2,0.8s1.5-0.3,2-0.8l1-1l11.2-11.2c1.1-1.1,1.1-2.899,0-4C60.5,41.3,59.8,41,59.1,41z"/>
	<path fill="#02C8AF" d="M99.899,44.2c-0.1-1.2-0.8-2.3-1.7-3.101l-6.8-5.1l2.5-8.2c0.4-1.2,0.2-2.399-0.399-3.5
		c-0.601-1.1-1.601-1.8-2.801-2.1l-8.3-1.9l-1.1-8.5c-0.2-1.2-0.8-2.3-1.8-3C78.699,8.2,77.8,8,76.899,8c-0.3,0-0.6,0-0.8,0.1
		l-8.4,1.601L63.3,2.4c-0.601-1-1.7-1.801-2.9-2C60.1,0.3,59.8,0.3,59.5,0.3c-0.9,0-1.801,0.3-2.5,0.8L50,6l-7-4.9
		c-0.7-0.5-1.6-0.8-2.5-0.8c-0.3,0-0.6,0-0.9,0.101c-1.2,0.3-2.2,1-2.9,2l-4.4,7.3L23.9,8.1C23.6,8,23.3,8,23.1,8
		c-0.9,0-1.8,0.3-2.6,0.8c-1,0.7-1.6,1.8-1.8,3l-1.1,8.5l-8.3,1.9c-1.2,0.3-2.2,1-2.8,2.1c-0.6,1.101-0.8,2.3-0.4,3.5L8.6,36
		l-6.8,5.1c-1,0.7-1.6,1.9-1.7,3.101S0.4,46.6,1.2,47.6L6.8,54l-4.1,7.5C2.1,62.6,2,63.8,2.4,65c0.4,1.2,1.2,2.1,2.3,2.6l7.7,3.601
		l-0.7,8.5C11.6,80.9,12,82.1,12.8,83c0.8,0.9,2,1.4,3.2,1.5l8.5,0.2l2.8,8c0.4,1.2,1.3,2.1,2.4,2.6c0.6,0.3,1.2,0.4,1.8,0.4
		s1.2-0.101,1.7-0.3l7.9-3.301l5.8,6.2c0.8,0.9,2,1.4,3.2,1.4c1.2,0,2.4-0.5,3.2-1.4l5.8-6.2L67,95.4c0.5,0.199,1.1,0.3,1.7,0.3
		c0.6,0,1.199-0.101,1.8-0.4c1.1-0.5,2-1.399,2.399-2.6l2.801-8l8.5-0.2c1.199,0,2.399-0.6,3.199-1.5c0.801-0.9,1.2-2.1,1.101-3.3
		l-0.7-8.5l7.7-3.601c1.1-0.5,2-1.5,2.3-2.6c0.4-1.2,0.3-2.4-0.3-3.5L93.399,54L99,47.6C99.6,46.7,100,45.5,99.899,44.2z M49.9,78.9
		C34,78.9,21,66,21,50s13-28.9,28.9-28.9s28.9,13,28.9,28.9S65.8,78.9,49.9,78.9z"/>
</g>
</svg>
