<svg id="Capa_2" data-name="Capa 2" xmlns="http://www.w3.org/2000/svg" viewBox="0 0 20 20"><defs><style>.cls-1{fill:#fff;}</style></defs><title>BLUEBERRIES 6oz</title><path class="cls-1" d="M3.34,10.12c0-2,0-4.1,0-6.14,0-1.71.75-2.4,2.47-2.45.24,0,.47,0,.7,0,6.06,0,6.07,0,9.53,4.91a3.37,3.37,0,0,1,.59,1.76c.06,2.86,0,5.73,0,8.59a2,2,0,0,1-2.26,2.26c-2.86,0-5.73,0-8.6,0-1.72,0-2.44-.74-2.47-2.45,0-2.16,0-4.32,0-6.48ZM5.91,7.71V7.15h6.23l-.64-2.3H5.91V4.34h5.87l-.11-2.13c-2.13,0-4.16,0-6.19,0C4.37,2.25,4,3,4,4c0,4.21,0,8.41,0,12.61,0,1.13.45,1.77,1.64,1.77,2.92,0,5.84.06,8.76-.05.53,0,1.47-.66,1.48-1C16,14.16,16,11,16,7.71ZM15.68,7,12.59,3C12.21,6.88,12.51,7.27,15.68,7Z"/><path class="cls-1" d="M14.78,16.1H6.64v-.35h8.14Z"/><path class="cls-1" d="M14.79,13.3H6.65V13h8.14Z"/><path class="cls-1" d="M14.78,10.49H6.65v-.35h8.14Z"/></svg>