<svg id="Capa_2" data-name="Capa 2" xmlns="http://www.w3.org/2000/svg" viewBox="0 0 20 20"><defs><style>.cls-1{fill:#fff;}</style></defs><title>BLUEBERRIES 6oz</title><path class="cls-1" d="M11.75,8.72a.46.46,0,0,0-.31-.13.48.48,0,0,0-.32.13l-1.6,1.61-.64-.65a.45.45,0,0,0-.63,0,.45.45,0,0,0,0,.64l.95,1a.5.5,0,0,0,.32.13.48.48,0,0,0,.32-.13l.16-.17,1.75-1.75a.45.45,0,0,0,0-.64"/><path class="cls-1" d="M17.84,9.1a.7.7,0,0,0-.27-.49l-1.06-.8.38-1.28A.66.66,0,0,0,16.83,6a.67.67,0,0,0-.44-.33l-1.31-.31L14.92,4a.74.74,0,0,0-.28-.48.67.67,0,0,0-.41-.13H14.1l-1.32.25-.69-1.14a.67.67,0,0,0-.45-.32l-.14,0a.62.62,0,0,0-.4.13L10,3.08,8.9,2.32a.62.62,0,0,0-.4-.13l-.14,0a.67.67,0,0,0-.45.32L7.22,3.67,5.9,3.42H5.77a.67.67,0,0,0-.41.13A.74.74,0,0,0,5.08,4L4.92,5.34l-1.31.31A.69.69,0,0,0,3.17,6a.66.66,0,0,0-.06.55l.38,1.28-1.06.8a.7.7,0,0,0-.27.49.73.73,0,0,0,.16.53l.88,1-.65,1.17a.7.7,0,0,0,0,.55.7.7,0,0,0,.36.41l1.22.57L4,14.67a.72.72,0,0,0,.18.53.69.69,0,0,0,.5.23l1.34,0,.44,1.26a.68.68,0,0,0,.65.47.67.67,0,0,0,.28-.06l1.23-.52.91,1a.7.7,0,0,0,1,0l.91-1,1.23.52a.66.66,0,0,0,.27.06.69.69,0,0,0,.66-.47L14,15.46l1.34,0a.69.69,0,0,0,.5-.23.72.72,0,0,0,.18-.53l-.12-1.33,1.22-.57a.7.7,0,0,0,.36-.41.7.7,0,0,0-.05-.55l-.65-1.17.88-1a.73.73,0,0,0,.16-.53M10,14.53A4.53,4.53,0,1,1,14.53,10,4.53,4.53,0,0,1,10,14.53"/></svg>