<svg id="Capa_2" data-name="Capa 2" xmlns="http://www.w3.org/2000/svg" viewBox="0 0 20 20"><defs><style>.cls-1{fill:#fff;}</style></defs><title>BLUEBERRIES 6oz</title><path class="cls-1" d="M4.57,1.48a.62.62,0,0,0-.43-.2.6.6,0,0,0-.44.16L2,3a.62.62,0,0,0-.2.43A.66.66,0,0,0,2,3.9L3.55,5.6a.62.62,0,0,0,.87,0l1.7-1.58a.64.64,0,0,0,.2-.43.61.61,0,0,0-.17-.44Zm-.91,2a.4.4,0,0,1,.42-.38.39.39,0,0,1,.38.41.4.4,0,1,1-.8,0"/><path class="cls-1" d="M13.1,16.1a2.69,2.69,0,1,0,5.38.19,2.68,2.68,0,0,0-2.59-2.78,2.73,2.73,0,0,0-.76.08L8.52,6.47A3.7,3.7,0,0,0,5.35,1.11H5L6.56,2.76A1.24,1.24,0,0,1,6.5,4.51L4.81,6.07A1.22,1.22,0,0,1,3.07,6L1.54,4.36c0,.11,0,.21,0,.31A3.7,3.7,0,0,0,5.08,8.51a3.83,3.83,0,0,0,1.27-.18l6.81,7.33a3.11,3.11,0,0,0-.06.44m4,.14a1.33,1.33,0,1,1-1.28-1.37,1.32,1.32,0,0,1,1.28,1.37"/></svg>