<svg id="Capa_2" data-name="Capa 2" xmlns="http://www.w3.org/2000/svg" viewBox="0 0 20 20"><defs><style>.cls-1{fill:#fff;}</style></defs><title>BLUEBERRIES 6oz</title><path class="cls-1" d="M10.7,18.25H9.3a.32.32,0,0,0-.32.32.32.32,0,0,0,.32.32h1.4a.32.32,0,0,0,.32-.32A.32.32,0,0,0,10.7,18.25Z"/><path class="cls-1" d="M10,1.11A6.49,6.49,0,0,0,5.66,12.42l0,0,.08.08C7.51,14,7.62,15,7.63,15a.29.29,0,0,0,.09.23.32.32,0,0,0,.23.09h4.1a.32.32,0,0,0,.23-.09.29.29,0,0,0,.09-.23c0-.06.12-1,1.81-2.49l.12-.09v0h0A6.49,6.49,0,0,0,10,1.11ZM8.91,14.72,8.1,8.94h.38a.09.09,0,0,0,.07,0L9,8.55l.44.51a.12.12,0,0,0,.08,0,.09.09,0,0,0,.08,0L10,8.57l.41.49a.12.12,0,0,0,.08,0,.11.11,0,0,0,.09,0l.45-.51.44.36a.09.09,0,0,0,.07,0H12l-.87,5.78Zm5-2.76h0l-.1.09a5.76,5.76,0,0,0-2,2.65h-.47l.89-5.87a.1.1,0,0,0,0-.09.12.12,0,0,0-.08,0h-.49l-.48-.4a.12.12,0,0,0-.15,0l-.44.5-.42-.49a.09.09,0,0,0-.08,0,.11.11,0,0,0-.08,0l-.44.5-.43-.5a.12.12,0,0,0-.15,0l-.5.4H8a.12.12,0,0,0-.08,0,.1.1,0,0,0,0,.09l.81,5.87H8.21a5.78,5.78,0,0,0-2-2.69l-.05,0,0,0h0a5.85,5.85,0,1,1,7.78,0Z"/><path class="cls-1" d="M12.05,15.8H8a.33.33,0,0,0-.32.32v.78s0,.05,0,.07a1,1,0,0,0,1,.93h2.65a1,1,0,0,0,1-.93s0,0,0-.07v-.78A.33.33,0,0,0,12.05,15.8Z"/></svg>